<svg width="66" height="71" viewBox="0 0 66 71" fill="none" xmlns="http://www.w3.org/2000/svg">
<path d="M45.2397 35.4682V35.3176C38.6186 34.6704 33.2745 29.4174 32.8997 22.1174H32.8442C32.4 28.7401 26.7922 34.5199 20.7263 35.3026V35.4983C26.82 36.2809 32.4 42.1059 32.8442 48.6835H32.8997C33.3022 41.6694 38.6324 36.1605 45.2397 35.4682Z" stroke="white" stroke-miterlimit="10"/>
<path d="M16.7681 18.0081C16.6709 8.63091 9.67503 1.075 1.02734 0.999745C1.95735 9.51895 8.85607 17.3759 16.7681 18.0081Z" stroke="white" stroke-miterlimit="10"/>
<path d="M1 35.3929C9.71709 35.3478 16.7685 27.6564 16.7685 18.204V18.0836C8.0514 18.6104 1.77732 26.1061 1 35.408V35.3929Z" stroke="white" stroke-miterlimit="10"/>
<path d="M16.7681 52.4006C16.6709 43.0235 9.67503 35.4676 1.02734 35.3923C1.95735 43.9115 8.85607 51.7685 16.7681 52.4006Z" stroke="white" stroke-miterlimit="10"/>
<path d="M1 69.8008C9.71709 69.7556 16.7685 62.0643 16.7685 52.6118V52.4914C8.0514 53.0032 1.77732 60.4989 1 69.8008Z" stroke="white" stroke-miterlimit="10"/>
<path d="M48.7236 18.0081C48.6265 8.63091 41.6306 1.075 32.9829 0.999745C33.9129 9.51895 40.8116 17.3759 48.7236 18.0081Z" stroke="white" stroke-miterlimit="10"/>
<path d="M17.0068 18.0081C24.8633 17.3759 31.8176 9.54906 32.7615 0.999745C24.1138 1.075 17.104 8.63091 17.0068 18.0081Z" stroke="white" stroke-miterlimit="10"/>
<path d="M32.9553 69.8009C41.6724 69.7557 48.7238 62.0643 48.7238 52.6119V52.4915C40.0067 53.0183 33.7326 60.514 32.9553 69.8159V69.8009Z" stroke="white" stroke-miterlimit="10"/>
<path d="M17.0068 52.4764V52.5968C17.0068 62.0643 24.0721 69.7556 32.7892 69.8008C31.9564 60.529 25.3769 53.0333 17.0068 52.4764Z" stroke="white" stroke-miterlimit="10"/>
<path d="M48.7227 18.0081C56.5791 17.3759 63.5334 9.54906 64.4773 0.999745C55.8296 1.075 48.8198 8.63091 48.7227 18.0081Z" stroke="white" stroke-miterlimit="10"/>
<path d="M64.4773 35.3926H64.505C63.6722 26.1208 57.0927 18.6251 48.7227 18.0682V18.1886C48.7227 27.6259 55.7602 35.3173 64.4773 35.3775V35.3926Z" stroke="white" stroke-miterlimit="10"/>
<path d="M48.7227 52.4006C56.5791 51.7685 63.5334 43.9416 64.4773 35.3923C55.8296 35.4676 48.8198 43.0235 48.7227 52.4006Z" stroke="white" stroke-miterlimit="10"/>
<path d="M48.7227 52.4768V52.5972C48.7227 62.0496 55.7879 69.741 64.505 69.7861C63.6722 60.5143 57.0927 53.0186 48.7227 52.4617V52.4768Z" stroke="white" stroke-miterlimit="10"/>
</svg>
