<svg width="245" height="53" viewBox="0 0 245 53" fill="none" xmlns="http://www.w3.org/2000/svg">
<path d="M39.33 29.6C38.62 28.21 37.94 26.9 37.27 25.8V25.78C33.71 19.24 25.87 5.2 22.84 0C21.08 3.33 19.14 6.93 17.26 10.41C14.22 16.06 11.35 21.4 9.28999 25.42C8.95999 26.06 8.62999 26.74 8.27999 27.44C6.25999 31.55 3.77999 36.58 -0.0100098 39.43H6.18999C5.29999 37.22 7.59999 32.81 9.15999 29.81C9.36999 29.4 9.90999 28.42 9.99999 28.36C10.15 28.26 32.5 30.28 32.71 30.29L32.89 30.31L32.96 30.49C34.3 32.92 37.04 38.34 37.64 39.43C38.9 39.41 40.24 39.42 41.66 39.43C43.29 39.43 44.97 39.45 46.51 39.41C43.44 37.63 41.26 33.38 39.31 29.59L39.33 29.6ZM11.11 26.31L11.33 25.85C13.13 22 18.31 12.01 20.32 8.28L20.57 7.81L20.83 8.27C24.43 14.6 30.42 25.67 31.45 27.59L31.75 28.16L11.11 26.31Z" fill="#0A0027"/>
<path d="M236.94 29.6C236.23 28.21 235.55 26.9 234.88 25.8V25.78C231.32 19.24 223.48 5.2 220.45 0C218.69 3.33 216.75 6.93 214.87 10.41C211.83 16.06 208.96 21.4 206.9 25.42C206.57 26.06 206.24 26.74 205.89 27.44C203.87 31.55 201.39 36.58 197.6 39.43H203.8C202.91 37.22 205.21 32.81 206.77 29.81C206.98 29.4 207.52 28.42 207.61 28.36C207.76 28.26 230.11 30.28 230.32 30.29L230.5 30.31L230.57 30.49C231.96 33.33 234.65 38.34 235.25 39.43C236.51 39.41 237.85 39.42 239.27 39.43C240.9 39.43 242.58 39.45 244.12 39.41C241.05 37.63 238.87 33.38 236.92 29.59L236.94 29.6ZM208.72 26.31L208.94 25.85C210.74 22 215.92 12.01 217.93 8.28L218.18 7.81L218.44 8.27C222.04 14.6 228.03 25.67 229.06 27.59L229.36 28.16L208.72 26.31Z" fill="#0A0027"/>
<path d="M64.4401 40.3C72.2001 40.79 79.8901 38.08 84.4901 33.22C87.8401 29.68 89.5301 25.23 89.4801 20.02C89.4701 14.21 87.2601 9.26 83.1001 5.68C77.0901 0.530002 67.4601 -1.36 59.1401 1C50.7101 2.73 44.7501 9.45 43.9101 18.14C43.2601 24.91 45.9201 33.69 55.3401 38.04C57.4201 39.03 59.7301 39.71 62.2301 40.07L62.7101 40.14L59.4701 45.5C60.4101 45.03 61.6701 45.03 62.9801 45.03C66.1301 45.03 69.0101 46.78 72.0601 48.64C75.2501 50.58 78.5501 52.59 82.3101 52.59C87.6201 52.59 88.4101 49.32 88.4101 47.38C88.4101 47.04 88.3701 46.51 88.1901 46.01C88.1201 46.5 87.9401 47.06 87.6001 47.56C87.1501 48.22 86.2301 49.02 84.4301 49.02C81.7901 49.02 79.3801 47.68 76.8201 46.26C73.8701 44.63 70.5301 42.78 66.3001 42.78C63.8101 42.78 62.1201 44.13 62.1201 44.14L64.2701 40.3H64.4501H64.4401ZM64.0601 37.93L63.8601 37.91C59.4801 37.12 55.9101 34.74 53.5201 31.01C51.3801 27.68 50.3201 23.43 50.5501 19.07C50.9601 10.9 55.9101 2.42 66.0301 1.87H66.0501C77.4601 1.89 82.7301 11.27 82.7901 19.98C82.8501 28.59 77.8401 37.96 66.6801 38.2C66.4801 38.2 66.2901 38.18 66.1001 38.17H65.8901C65.2901 38.15 64.6701 38.07 64.0701 37.93H64.0601Z" fill="#0A0027"/>
<path d="M149.99 0.529999H143.92V39.35H149.99V0.529999Z" fill="#0A0027"/>
<path d="M165.01 37.41V0.580002H158.96V39.41H192.15L195.65 32.56C193.74 34.31 189.67 37.41 184.79 37.41H165H165.01Z" fill="#0A0027"/>
<path d="M128.44 0.68V20.44C128.44 26.03 126.95 30.64 124.11 33.75C121.77 36.33 118.43 36.94 114.61 37.06C110.79 36.94 107.45 36.32 105.11 33.75C102.27 30.64 100.78 26.04 100.78 20.44V0.68H94.6599V20.44C94.6599 35.11 104.96 40.35 114.59 40.35C114.59 40.35 114.59 40.35 114.6 40.35C114.61 40.35 114.6 40.35 114.61 40.35C124.24 40.35 134.54 35.12 134.54 20.44V0.68H128.42H128.44Z" fill="#0A0027"/>
</svg>
