<svg width="245" height="53" viewBox="0 0 245 53" fill="none" xmlns="http://www.w3.org/2000/svg">
<path d="M39.33 29.6C38.62 28.21 37.94 26.9 37.27 25.8V25.78C33.71 19.24 25.87 5.2 22.84 0C21.08 3.33 19.14 6.93 17.26 10.41C14.22 16.06 11.35 21.4 9.28999 25.42C8.95999 26.06 8.62999 26.74 8.27999 27.44C6.25999 31.55 3.77999 36.58 -0.0100098 39.43H6.18999C5.29999 37.22 7.59999 32.81 9.15999 29.81C9.36999 29.4 9.90999 28.42 9.99999 28.36C10.15 28.26 32.5 30.28 32.71 30.29L32.89 30.31L32.96 30.49C34.3 32.92 37.04 38.34 37.64 39.43C38.9 39.41 40.24 39.42 41.66 39.43C43.29 39.43 44.97 39.45 46.51 39.41C43.44 37.63 41.26 33.38 39.31 29.59L39.33 29.6ZM11.11 26.31L11.33 25.85C13.13 22 18.31 12.01 20.32 8.28L20.57 7.81L20.83 8.27C24.43 14.6 30.42 25.67 31.45 27.59L31.75 28.16L11.11 26.31Z" fill="white"/>
<path d="M236.94 29.6C236.23 28.21 235.55 26.9 234.88 25.8V25.78C231.32 19.24 223.48 5.2 220.45 0C218.69 3.33 216.75 6.93 214.87 10.41C211.83 16.06 208.96 21.4 206.9 25.42C206.57 26.06 206.24 26.74 205.89 27.44C203.87 31.55 201.39 36.58 197.6 39.43H203.8C202.91 37.22 205.21 32.81 206.77 29.81C206.98 29.4 207.52 28.42 207.61 28.36C207.76 28.26 230.11 30.28 230.32 30.29L230.5 30.31L230.57 30.49C231.96 33.33 234.65 38.34 235.25 39.43C236.51 39.41 237.85 39.42 239.27 39.43C240.9 39.43 242.58 39.45 244.12 39.41C241.05 37.63 238.87 33.38 236.92 29.59L236.94 29.6ZM208.72 26.31L208.94 25.85C210.74 22 215.92 12.01 217.93 8.28L218.18 7.81L218.44 8.27C222.04 14.6 228.03 25.67 229.06 27.59L229.36 28.16L208.72 26.31Z" fill="white"/>
<path d="M64.44 40.3C72.2 40.79 79.89 38.08 84.49 33.22C87.84 29.68 89.53 25.23 89.48 20.02C89.47 14.21 87.26 9.26 83.1 5.68C77.09 0.530002 67.46 -1.36 59.14 1C50.71 2.73 44.75 9.45 43.91 18.14C43.26 24.91 45.92 33.69 55.34 38.04C57.42 39.03 59.73 39.71 62.23 40.07L62.71 40.14L59.47 45.5C60.41 45.03 61.67 45.03 62.98 45.03C66.13 45.03 69.01 46.78 72.06 48.64C75.25 50.58 78.55 52.59 82.31 52.59C87.62 52.59 88.41 49.32 88.41 47.38C88.41 47.04 88.37 46.51 88.19 46.01C88.12 46.5 87.94 47.06 87.6 47.56C87.15 48.22 86.23 49.02 84.43 49.02C81.79 49.02 79.38 47.68 76.82 46.26C73.87 44.63 70.53 42.78 66.3 42.78C63.81 42.78 62.12 44.13 62.12 44.14L64.27 40.3H64.45H64.44ZM64.06 37.93L63.86 37.91C59.48 37.12 55.91 34.74 53.52 31.01C51.38 27.68 50.32 23.43 50.55 19.07C50.96 10.9 55.91 2.42 66.03 1.87H66.05C77.46 1.89 82.73 11.27 82.79 19.98C82.85 28.59 77.84 37.96 66.68 38.2C66.48 38.2 66.29 38.18 66.1 38.17H65.89C65.29 38.15 64.67 38.07 64.07 37.93H64.06Z" fill="white"/>
<path d="M149.99 0.529999H143.92V39.35H149.99V0.529999Z" fill="white"/>
<path d="M165.01 37.41V0.580002H158.96V39.41H192.15L195.65 32.56C193.74 34.31 189.67 37.41 184.79 37.41H165H165.01Z" fill="white"/>
<path d="M128.44 0.68V20.44C128.44 26.03 126.95 30.64 124.11 33.75C121.77 36.33 118.43 36.94 114.61 37.06C110.79 36.94 107.45 36.32 105.11 33.75C102.27 30.64 100.78 26.04 100.78 20.44V0.68H94.66V20.44C94.66 35.11 104.96 40.35 114.59 40.35C114.59 40.35 114.59 40.35 114.6 40.35C114.61 40.35 114.6 40.35 114.61 40.35C124.24 40.35 134.54 35.12 134.54 20.44V0.68H128.42H128.44Z" fill="white"/>
</svg>
