<svg width="141" height="7" viewBox="0 0 141 7" fill="none" xmlns="http://www.w3.org/2000/svg">
<path d="M0.0300293 0.600006H0.130032L3.06003 4.02L5.96003 0.600006H6.06003V6.78001H5.15003V3.60001C5.15003 3.27001 5.19003 2.74001 5.19003 2.73001C5.17003 2.75001 4.88003 3.19001 4.64003 3.46001L3.10003 5.31001H2.99003L1.45003 3.46001C1.23003 3.20001 0.94003 2.77001 0.91003 2.73001C0.91003 2.75001 0.950031 3.27001 0.950031 3.60001V6.78001H0.0400314V0.600006H0.0300293Z" fill="#0A0027"/>
<path d="M12.91 0.600006H13.02L15.7 6.78001H14.71L14.26 5.66001H11.66L11.21 6.78001H10.29L12.91 0.600006ZM13.92 4.87001L13.25 3.2C13.12 2.87 12.95 2.34001 12.94 2.30001C12.94 2.33001 12.79 2.85 12.64 3.2L11.97 4.87001H13.91H13.92Z" fill="#0A0027"/>
<path d="M19.3401 5.59L20.1201 5.16C20.4101 5.64 20.7801 6.01 21.5201 6.01C22.1401 6.01 22.5801 5.68 22.5801 5.17C22.5801 4.64 22.2201 4.4 21.5501 4.11L21.1401 3.93C20.2501 3.53 19.7101 3.08 19.7101 2.14C19.7101 1.2 20.4101 0.580002 21.4301 0.580002C22.2401 0.580002 22.7901 0.890001 23.1601 1.54L22.4101 2C22.1801 1.59 21.9101 1.41 21.4301 1.41C20.9501 1.41 20.6401 1.71 20.6401 2.12C20.6401 2.58 20.9001 2.79 21.5201 3.06L21.9201 3.24C22.9601 3.7 23.5201 4.19 23.5201 5.17C23.5201 6.24 22.6801 6.86 21.5301 6.86C20.3801 6.86 19.6701 6.28 19.3201 5.59H19.3401Z" fill="#0A0027"/>
<path d="M29.12 1.5H27.3V0.660004H31.88V1.5H30.06V6.78H29.11V1.5H29.12Z" fill="#0A0027"/>
<path d="M36.1501 0.660004H40.0401V1.5H37.1101V3.30001H39.7101V4.12001H37.1101V5.95H40.1701V6.79H36.1501V0.670002V0.660004Z" fill="#0A0027"/>
<path d="M44.6699 0.660004H46.7199C47.9799 0.660004 48.9399 1.25 48.9399 2.61C48.9399 3.52 48.4399 4.1 47.6999 4.36L49.1399 6.78H48.0499L46.7299 4.51001H45.6199V6.78H44.6699V0.660004ZM46.6799 3.71C47.4899 3.71 47.9599 3.38 47.9599 2.6C47.9599 1.82 47.4799 1.49001 46.6799 1.49001H45.6199V3.7H46.6799V3.71Z" fill="#0A0027"/>
<path d="M53.45 0.660004H57.27V1.5H54.41V3.47001H57V4.32H54.41V6.79H53.46V0.670002L53.45 0.660004Z" fill="#0A0027"/>
<path d="M61.6602 4.63V0.660004H62.6102V4.58001C62.6102 5.57001 63.1002 6.01001 63.9902 6.01001C64.8802 6.01001 65.3801 5.57001 65.3801 4.58001V0.660004H66.3302V4.63C66.3302 6.12 65.3202 6.86 64.0002 6.86C62.6802 6.86 61.6702 6.11 61.6702 4.63H61.6602Z" fill="#0A0027"/>
<path d="M71 0.660004H71.95V5.95H74.78V6.79H71V0.670002V0.660004Z" fill="#0A0027"/>
<path d="M84.4399 0.660004H88.3299V1.5H85.3999V3.30001H87.9999V4.12001H85.3999V5.95H88.4599V6.79H84.4499V0.670002L84.4399 0.660004Z" fill="#0A0027"/>
<path d="M92.4599 5.59L93.2399 5.16C93.5299 5.64 93.8999 6.01 94.6399 6.01C95.2599 6.01 95.6999 5.68 95.6999 5.17C95.6999 4.64 95.3399 4.4 94.6699 4.11L94.2599 3.93C93.3699 3.53 92.8299 3.08 92.8299 2.14C92.8299 1.2 93.5299 0.580002 94.5499 0.580002C95.3599 0.580002 95.9099 0.890001 96.2799 1.54L95.5299 2C95.2999 1.59 95.0299 1.41 94.5499 1.41C94.0699 1.41 93.7599 1.71 93.7599 2.12C93.7599 2.58 94.0199 2.79 94.6399 3.06L95.0399 3.24C96.0799 3.7 96.6399 4.19 96.6399 5.17C96.6399 6.24 95.7999 6.86 94.6499 6.86C93.4999 6.86 92.7899 6.28 92.4399 5.59H92.4599Z" fill="#0A0027"/>
<path d="M100.72 3.72C100.72 1.89 102.12 0.589996 103.86 0.589996C104.96 0.589996 105.77 0.999998 106.31 1.81L105.58 2.33C105.24 1.8 104.66 1.45 103.86 1.45C102.59 1.45 101.69 2.42 101.69 3.73C101.69 5.04 102.59 6.01999 103.86 6.01999C104.71 6.01999 105.27 5.63999 105.67 5.05999L106.4 5.57C105.87 6.38 105 6.87999 103.86 6.87999C102.12 6.87999 100.72 5.56999 100.72 3.73999V3.72Z" fill="#0A0027"/>
<path d="M112.64 0.600006H112.75L115.43 6.78001H114.44L113.99 5.66001H111.39L110.94 6.78001H110.02L112.64 0.600006ZM113.65 4.87001L112.98 3.2C112.85 2.87 112.68 2.34001 112.67 2.30001C112.67 2.33001 112.52 2.85 112.37 3.2L111.7 4.87001H113.64H113.65Z" fill="#0A0027"/>
<path d="M119.67 0.660004H121.64C122.92 0.660004 123.86 1.29 123.86 2.63C123.86 3.97 122.91 4.61 121.64 4.61H120.62V6.78H119.67V0.660004ZM121.6 3.78C122.43 3.78 122.89 3.41 122.89 2.64C122.89 1.87 122.42 1.51 121.6 1.51H120.62V3.79H121.6V3.78Z" fill="#0A0027"/>
<path d="M128.23 0.660004H132.12V1.5H129.19V3.30001H131.79V4.12001H129.19V5.95H132.25V6.79H128.24V0.670002L128.23 0.660004Z" fill="#0A0027"/>
<path d="M136.24 5.59L137.02 5.16C137.31 5.64 137.68 6.01 138.42 6.01C139.04 6.01 139.48 5.68 139.48 5.17C139.48 4.64 139.12 4.4 138.45 4.11L138.04 3.93C137.15 3.53 136.61 3.08 136.61 2.14C136.61 1.2 137.31 0.580002 138.33 0.580002C139.14 0.580002 139.69 0.890001 140.06 1.54L139.31 2C139.08 1.59 138.81 1.41 138.33 1.41C137.85 1.41 137.54 1.71 137.54 2.12C137.54 2.58 137.8 2.79 138.42 3.06L138.82 3.24C139.86 3.7 140.42 4.19 140.42 5.17C140.42 6.24 139.58 6.86 138.43 6.86C137.28 6.86 136.57 6.28 136.22 5.59H136.24Z" fill="#0A0027"/>
</svg>
