<svg width="141" height="7" viewBox="0 0 141 7" fill="none" xmlns="http://www.w3.org/2000/svg">
<path d="M0.0300293 0.600006H0.130032L3.06003 4.02L5.96003 0.600006H6.06003V6.78001H5.15003V3.60001C5.15003 3.27001 5.19003 2.74001 5.19003 2.73001C5.17003 2.75001 4.88003 3.19001 4.64003 3.46001L3.10003 5.31001H2.99003L1.45003 3.46001C1.23003 3.20001 0.94003 2.77001 0.91003 2.73001C0.91003 2.75001 0.950031 3.27001 0.950031 3.60001V6.78001H0.0400314V0.600006H0.0300293Z" fill="white"/>
<path d="M12.91 0.600006H13.02L15.7 6.78001H14.71L14.26 5.66001H11.66L11.21 6.78001H10.29L12.91 0.600006ZM13.92 4.87001L13.25 3.2C13.12 2.87 12.95 2.34001 12.94 2.30001C12.94 2.33001 12.79 2.85 12.64 3.2L11.97 4.87001H13.91H13.92Z" fill="white"/>
<path d="M19.34 5.59L20.12 5.16C20.41 5.64 20.78 6.01 21.52 6.01C22.14 6.01 22.58 5.68 22.58 5.17C22.58 4.64 22.22 4.4 21.55 4.11L21.14 3.93C20.25 3.53 19.71 3.08 19.71 2.14C19.71 1.2 20.41 0.580002 21.43 0.580002C22.24 0.580002 22.79 0.890001 23.16 1.54L22.41 2C22.18 1.59 21.91 1.41 21.43 1.41C20.95 1.41 20.64 1.71 20.64 2.12C20.64 2.58 20.9 2.79 21.52 3.06L21.92 3.24C22.96 3.7 23.52 4.19 23.52 5.17C23.52 6.24 22.68 6.86 21.53 6.86C20.38 6.86 19.67 6.28 19.32 5.59H19.34Z" fill="white"/>
<path d="M29.12 1.5H27.3V0.660004H31.88V1.5H30.06V6.78H29.11V1.5H29.12Z" fill="white"/>
<path d="M36.15 0.660004H40.04V1.5H37.11V3.30001H39.71V4.12001H37.11V5.95H40.17V6.79H36.15V0.670002V0.660004Z" fill="white"/>
<path d="M44.67 0.660004H46.72C47.98 0.660004 48.94 1.25 48.94 2.61C48.94 3.52 48.44 4.1 47.7 4.36L49.14 6.78H48.05L46.73 4.51001H45.62V6.78H44.67V0.660004ZM46.68 3.71C47.49 3.71 47.96 3.38 47.96 2.6C47.96 1.82 47.48 1.49001 46.68 1.49001H45.62V3.7H46.68V3.71Z" fill="white"/>
<path d="M53.4501 0.660004H57.2701V1.5H54.4101V3.47001H57.0001V4.32H54.4101V6.79H53.4601V0.670002L53.4501 0.660004Z" fill="white"/>
<path d="M61.66 4.63V0.660004H62.61V4.58001C62.61 5.57001 63.1 6.01001 63.99 6.01001C64.88 6.01001 65.38 5.57001 65.38 4.58001V0.660004H66.33V4.63C66.33 6.12 65.32 6.86 64 6.86C62.68 6.86 61.67 6.11 61.67 4.63H61.66Z" fill="white"/>
<path d="M71 0.660004H71.95V5.95H74.78V6.79H71V0.670002V0.660004Z" fill="white"/>
<path d="M84.4401 0.660004H88.3301V1.5H85.4001V3.30001H88.0001V4.12001H85.4001V5.95H88.4601V6.79H84.4501V0.670002L84.4401 0.660004Z" fill="white"/>
<path d="M92.4601 5.59L93.2401 5.16C93.5301 5.64 93.9001 6.01 94.6401 6.01C95.2601 6.01 95.7001 5.68 95.7001 5.17C95.7001 4.64 95.3401 4.4 94.6701 4.11L94.2601 3.93C93.3701 3.53 92.8301 3.08 92.8301 2.14C92.8301 1.2 93.5301 0.580002 94.5501 0.580002C95.3601 0.580002 95.9101 0.890001 96.2801 1.54L95.5301 2C95.3001 1.59 95.0301 1.41 94.5501 1.41C94.0701 1.41 93.7601 1.71 93.7601 2.12C93.7601 2.58 94.0201 2.79 94.6401 3.06L95.0401 3.24C96.0801 3.7 96.6401 4.19 96.6401 5.17C96.6401 6.24 95.8001 6.86 94.6501 6.86C93.5001 6.86 92.7901 6.28 92.4401 5.59H92.4601Z" fill="white"/>
<path d="M100.72 3.72C100.72 1.89 102.12 0.589996 103.86 0.589996C104.96 0.589996 105.77 0.999998 106.31 1.81L105.58 2.33C105.24 1.8 104.66 1.45 103.86 1.45C102.59 1.45 101.69 2.42 101.69 3.73C101.69 5.04 102.59 6.01999 103.86 6.01999C104.71 6.01999 105.27 5.63999 105.67 5.05999L106.4 5.57C105.87 6.38 105 6.87999 103.86 6.87999C102.12 6.87999 100.72 5.56999 100.72 3.73999V3.72Z" fill="white"/>
<path d="M112.64 0.600006H112.75L115.43 6.78001H114.44L113.99 5.66001H111.39L110.94 6.78001H110.02L112.64 0.600006ZM113.65 4.87001L112.98 3.2C112.85 2.87 112.68 2.34001 112.67 2.30001C112.67 2.33001 112.52 2.85 112.37 3.2L111.7 4.87001H113.64H113.65Z" fill="white"/>
<path d="M119.67 0.660004H121.64C122.92 0.660004 123.86 1.29 123.86 2.63C123.86 3.97 122.91 4.61 121.64 4.61H120.62V6.78H119.67V0.660004ZM121.6 3.78C122.43 3.78 122.89 3.41 122.89 2.64C122.89 1.87 122.42 1.51 121.6 1.51H120.62V3.79H121.6V3.78Z" fill="white"/>
<path d="M128.23 0.660004H132.12V1.5H129.19V3.30001H131.79V4.12001H129.19V5.95H132.25V6.79H128.24V0.670002L128.23 0.660004Z" fill="white"/>
<path d="M136.24 5.59L137.02 5.16C137.31 5.64 137.68 6.01 138.42 6.01C139.04 6.01 139.48 5.68 139.48 5.17C139.48 4.64 139.12 4.4 138.45 4.11L138.04 3.93C137.15 3.53 136.61 3.08 136.61 2.14C136.61 1.2 137.31 0.580002 138.33 0.580002C139.14 0.580002 139.69 0.890001 140.06 1.54L139.31 2C139.08 1.59 138.81 1.41 138.33 1.41C137.85 1.41 137.54 1.71 137.54 2.12C137.54 2.58 137.8 2.79 138.42 3.06L138.82 3.24C139.86 3.7 140.42 4.19 140.42 5.17C140.42 6.24 139.58 6.86 138.43 6.86C137.28 6.86 136.57 6.28 136.22 5.59H136.24Z" fill="white"/>
</svg>
