<svg width="48" height="47" viewBox="0 0 48 47" fill="none" xmlns="http://www.w3.org/2000/svg">
<path d="M21 32.3122C21 37.6976 16.5 42.1038 11 42.1038C5.5 42.1038 1 37.6976 1 32.3122C1 26.9268 5.4 22.5205 10.9 22.5205" stroke="#FF7338" stroke-width="2" stroke-miterlimit="10"/>
<path d="M37 42.1038C42.5228 42.1038 47 37.72 47 32.3122C47 26.9044 42.5228 22.5205 37 22.5205C31.4772 22.5205 27 26.9044 27 32.3122C27 37.72 31.4772 42.1038 37 42.1038Z" stroke="#FF7338" stroke-width="2" stroke-miterlimit="10"/>
<path d="M11 32.3124L30.1 15.0791" stroke="#FF7338" stroke-width="2" stroke-miterlimit="10"/>
<path d="M37 32.3122L26 4.89551H18" stroke="#FF7338" stroke-width="2" stroke-miterlimit="10"/>
<path d="M17.3 26.6327L10 12.7285H4" stroke="#FF7338" stroke-width="2" stroke-miterlimit="10"/>
</svg>
