<svg width="48" height="46" viewBox="0 0 48 46" fill="none" xmlns="http://www.w3.org/2000/svg">
<path d="M19 29.7083C19 31.4141 18.4722 33.0817 17.4832 34.5C16.4943 35.9184 15.0887 37.0239 13.4442 37.6767C11.7996 38.3295 9.99002 38.5003 8.24419 38.1675C6.49836 37.8347 4.89472 37.0133 3.63604 35.807C2.37737 34.6008 1.5202 33.064 1.17294 31.3909C0.82567 29.7178 1.0039 27.9836 1.68509 26.4076C2.36628 24.8316 3.51983 23.4846 4.99987 22.5368C6.47991 21.5891 8.21997 21.0833 10 21.0833C12.387 21.0833 14.6761 21.992 16.364 23.6095C18.0518 25.227 19 27.4208 19 29.7083Z" stroke="#FF743A" stroke-width="2" stroke-miterlimit="10"/>
<path d="M2.19995 25.3957L10.63 10.1486C11.0431 9.39901 11.6619 8.77172 12.4197 8.33433C13.1774 7.89694 14.0454 7.66603 14.93 7.6665C15.5854 7.66721 16.2339 7.79497 16.8365 8.04209C17.4391 8.28921 17.9833 8.65058 18.4364 9.10448C18.8895 9.55838 19.2421 10.0954 19.4729 10.6833C19.7038 11.2712 19.8083 11.8977 19.78 12.5253L19 29.7082" stroke="#FF743A" stroke-width="2" stroke-miterlimit="10"/>
<path d="M29 29.7083C29 31.4141 29.5278 33.0817 30.5168 34.5C31.5057 35.9184 32.9113 37.0239 34.5559 37.6767C36.2004 38.3295 38.01 38.5003 39.7558 38.1675C41.5016 37.8347 43.1053 37.0133 44.364 35.807C45.6226 34.6008 46.4798 33.064 46.8271 31.3909C47.1743 29.7178 46.9961 27.9836 46.3149 26.4076C45.6337 24.8316 44.4802 23.4846 43.0001 22.5368C41.5201 21.5891 39.78 21.0833 38 21.0833C35.6131 21.0833 33.3239 21.992 31.636 23.6095C29.9482 25.227 29 27.4208 29 29.7083Z" stroke="#FF743A" stroke-width="2" stroke-miterlimit="10"/>
<path d="M45.7899 25.3958L37.3799 10.0624C36.9564 9.33181 36.3356 8.72385 35.5826 8.30232C34.8295 7.88078 33.972 7.6612 33.0999 7.6666C32.4445 7.66731 31.7959 7.79506 31.1933 8.04218C30.5908 8.2893 30.0466 8.65068 29.5935 9.10458C29.1404 9.55848 28.7878 10.0955 28.5569 10.6834C28.326 11.2712 28.2216 11.8978 28.2499 12.5254L28.9999 29.7083" stroke="#FF743A" stroke-width="2" stroke-miterlimit="10"/>
<path d="M19 29.7083C19.4257 28.7959 20.1336 28.0309 21.0278 27.5167C21.9221 27.0025 22.9596 26.7639 24 26.8333C25.0404 26.7639 26.0779 27.0025 26.9722 27.5167C27.8664 28.0309 28.5743 28.7959 29 29.7083" stroke="#FF743A" stroke-width="2" stroke-miterlimit="10"/>
<path d="M19.6101 16.3587C20.0393 15.6004 20.6743 14.9672 21.4478 14.526C22.2214 14.0847 23.1049 13.8518 24.0051 13.8518C24.9053 13.8518 25.7888 14.0847 26.5624 14.526C27.336 14.9672 27.9709 15.6004 28.4001 16.3587" stroke="#FF743A" stroke-width="2" stroke-miterlimit="10"/>
</svg>
