<svg width="48" height="46" viewBox="0 0 48 46" fill="none" xmlns="http://www.w3.org/2000/svg">
<g clip-path="url(#clip0_1_363)">
<path d="M34.83 37.375H13.17C11.394 37.378 9.66751 36.8146 8.26253 35.7735C6.85755 34.7324 5.85399 33.2729 5.41 31.625L1 15.8125L7.19 20.125C8.05046 20.728 9.03321 21.1515 10.0749 21.3682C11.1166 21.585 12.1941 21.5901 13.238 21.3834C14.2819 21.1766 15.269 20.7625 16.1357 20.1678C17.0024 19.5731 17.7295 18.8109 18.27 17.9304L24 8.625L29.72 17.9496C30.2621 18.83 30.9909 19.5916 31.8592 20.1854C32.7274 20.7792 33.716 21.1919 34.761 21.3969C35.806 21.6018 36.8843 21.5946 37.9262 21.3755C38.9681 21.1564 39.9505 20.7304 40.81 20.125L47 15.8125L42.59 31.625C42.146 33.2729 41.1424 34.7324 39.7375 35.7735C38.3325 36.8146 36.606 37.378 34.83 37.375Z" stroke="#FF7338" stroke-width="2" stroke-miterlimit="10"/>
</g>
<defs>
<clipPath id="clip0_1_363">
<rect width="48" height="46" fill="white"/>
</clipPath>
</defs>
</svg>
