<svg width="48" height="46" viewBox="0 0 48 46" fill="none" xmlns="http://www.w3.org/2000/svg">
<g clip-path="url(#clip0_1_450)">
<path d="M33 45.0413H15C12.8783 45.0413 10.8434 44.2336 9.34315 42.7958C7.84285 41.358 7 39.408 7 37.3747V18.208H41V37.3747C41 39.408 40.1571 41.358 38.6569 42.7958C37.1566 44.2336 35.1217 45.0413 33 45.0413Z" stroke="#FF7338" stroke-width="2" stroke-miterlimit="10"/>
<path d="M14 18.208V10.5413C14 7.99968 15.0536 5.56212 16.9289 3.7649C18.8043 1.96768 21.3478 0.958008 24 0.958008C26.6522 0.958008 29.1957 1.96768 31.0711 3.7649C32.9464 5.56212 34 7.99968 34 10.5413V18.208" stroke="#FF7338" stroke-width="2" stroke-miterlimit="10"/>
<path d="M23.9999 36.4163C23.7014 36.4193 23.4103 36.3266 23.173 36.153C22.9357 35.9794 22.7657 35.7348 22.6899 35.458L21.0799 30.3022C20.9879 29.8846 20.994 29.4527 21.0978 29.0377C21.2016 28.6227 21.4005 28.2351 21.6801 27.9029C21.9597 27.5708 22.3129 27.3024 22.7142 27.1174C23.1154 26.9323 23.5546 26.8352 23.9999 26.833C24.4421 26.836 24.8781 26.9327 25.2768 27.1161C25.6754 27.2995 26.0268 27.5651 26.3059 27.8938C26.5849 28.2226 26.7846 28.6064 26.8908 29.0178C26.9969 29.4291 27.0069 29.8579 26.9199 30.2734L25.3099 35.458C25.2342 35.7348 25.0641 35.9794 24.8268 36.153C24.5895 36.3266 24.2985 36.4193 23.9999 36.4163Z" fill="#FF7338"/>
</g>
<defs>
<clipPath id="clip0_1_450">
<rect width="48" height="46" fill="white"/>
</clipPath>
</defs>
</svg>
