<svg width="48" height="46" viewBox="0 0 48 46" fill="none" xmlns="http://www.w3.org/2000/svg">
<g clip-path="url(#clip0_1_465)">
<path d="M11.45 26.8908L21 11.0591C22.2437 8.97892 23.904 7.15458 25.8853 5.69081C27.8667 4.22705 30.1302 3.15269 32.5459 2.5294C34.9617 1.90611 37.4821 1.74616 39.9625 2.05872C42.4429 2.37129 44.8345 3.15022 47 4.35081L42 11.9791H34L40 15.9658L37.4799 20.125C36.2364 22.2091 34.576 24.0378 32.594 25.5061C30.612 26.9745 28.3473 28.0539 25.9294 28.6823C23.5115 29.3108 20.9881 29.476 18.5035 29.1686C16.0189 28.8612 13.622 28.0872 11.45 26.8908Z" stroke="#FF7338" stroke-width="2" stroke-miterlimit="10"/>
<path d="M11.45 26.8906L1 44.0831" stroke="#FF7338" stroke-width="2" stroke-miterlimit="10"/>
</g>
<defs>
<clipPath id="clip0_1_465">
<rect width="48" height="46" fill="white"/>
</clipPath>
</defs>
</svg>
