<svg width="48" height="47" viewBox="0 0 48 47" fill="none" xmlns="http://www.w3.org/2000/svg">
<path d="M15 41.1252C22.732 41.1252 29 34.9877 29 27.4168C29 19.8459 22.732 13.7085 15 13.7085C7.26801 13.7085 1 19.8459 1 27.4168C1 34.9877 7.26801 41.1252 15 41.1252Z" stroke="#FF743A" stroke-width="2" stroke-miterlimit="10"/>
<path d="M33 41.1252C40.732 41.1252 47 34.9877 47 27.4168C47 19.8459 40.732 13.7085 33 13.7085C25.268 13.7085 19 19.8459 19 27.4168C19 34.9877 25.268 41.1252 33 41.1252Z" stroke="#FF743A" stroke-width="2" stroke-miterlimit="10"/>
<path d="M34 13.7083H32L28 9.79167L30 5.875H36L38 9.79167L34 13.7083Z" stroke="#FF743A" stroke-width="2" stroke-miterlimit="10"/>
</svg>
