<svg width="48" height="46" viewBox="0 0 48 46" fill="none" xmlns="http://www.w3.org/2000/svg">
<g clip-path="url(#clip0_1_439)">
<path d="M21.5 8.62516C23.7091 8.62516 25.5 6.90892 25.5 4.79183C25.5 2.67474 23.7091 0.958496 21.5 0.958496C19.2909 0.958496 17.5 2.67474 17.5 4.79183C17.5 6.90892 19.2909 8.62516 21.5 8.62516Z" stroke="#FF743A" stroke-width="2" stroke-miterlimit="10"/>
<path d="M43.7001 39.3875L38.6001 28.3667C38.0001 26.8333 36.5001 25.875 34.8001 25.875H25.5001L24.7001 15.3333C24.6001 13.8958 23.4001 12.65 21.9001 12.4583C20.2001 12.2667 18.6001 13.4167 18.3001 15.1417C18.3001 15.2375 18.3001 15.3333 18.3001 15.3333L17.8001 25.5875C17.6001 28.75 20.2001 31.4333 23.5001 31.625C23.6001 31.625 23.7001 31.625 23.8001 31.625H34.3001L39.6001 41.4958C40.2001 42.4542 41.5001 42.9333 42.6001 42.4542C43.8001 41.975 44.3001 40.6333 43.8001 39.4833C43.8001 39.4833 43.8001 39.3875 43.7001 39.3875Z" stroke="#FF743A" stroke-width="2" stroke-miterlimit="10"/>
<path d="M18.3001 16.292C10.0001 16.6753 3.70007 23.3837 4.10007 31.3378C4.50007 39.292 11.5001 45.4253 19.8001 45.042C27.4001 44.6587 33.5001 38.9087 34.0001 31.6253" stroke="#FF743A" stroke-width="2" stroke-miterlimit="10"/>
</g>
<defs>
<clipPath id="clip0_1_439">
<rect width="48" height="46" fill="white"/>
</clipPath>
</defs>
</svg>
