<svg width="75" height="76" viewBox="0 0 75 76" fill="none" xmlns="http://www.w3.org/2000/svg">
<path d="M73.8347 26.3063C72.8288 23.2458 69.4249 20.7049 63.9801 18.9364V18.922H63.9655C63.9364 13.2628 62.5442 9.27833 59.9275 7.39435C57.3181 5.51759 53.0614 5.43097 47.5947 7.13449C44.22 2.57974 40.7359 0.168823 37.4924 0.168823C34.2488 0.168823 30.7939 2.58696 27.3827 7.14893H27.3681L27.3608 7.15615C21.9015 5.43097 17.6448 5.51759 15.0353 7.42322C12.4259 9.32886 11.0337 13.3061 11.0046 18.9364C5.56709 20.7194 2.16319 23.2602 1.16461 26.3063C0.158747 29.3741 1.39786 33.4091 4.75803 37.9928H4.75074L4.75803 38.0144C1.41972 42.6125 0.180614 46.6475 1.17919 49.6936C2.17777 52.7326 5.5598 55.2662 10.9754 57.0491V57.0924L11.0119 57.0996C11.0483 62.7444 12.4332 66.7216 15.0499 68.6056C16.4129 69.5873 18.2352 70.0854 20.451 70.0854C22.4627 70.0854 24.7951 69.6739 27.4046 68.8583C30.7866 73.4202 34.2707 75.8311 37.5069 75.8311C40.7432 75.8311 44.2054 73.413 47.6239 68.851H47.6385H47.6458C50.2333 69.6667 52.5585 70.0854 54.5629 70.0854C56.7787 70.0854 58.6009 69.5873 59.9785 68.584C62.5952 66.6783 63.9801 62.6938 64.0093 57.0635C69.4322 55.2734 72.8215 52.7398 73.8201 49.7009C74.8114 46.6547 73.5796 42.6341 70.2559 38.0433L70.2777 38.0144V38C73.6014 33.3947 74.8478 29.3669 73.842 26.3208L73.8347 26.3063ZM54.8617 57.5905C54.4973 57.641 54.1329 57.6771 53.7684 57.7204C53.7976 57.641 53.8267 57.5616 53.8632 57.4894C54.2422 56.5799 54.6066 55.6632 54.9492 54.732C55.0075 54.566 55.0658 54.4072 55.1241 54.2412C55.4449 53.3461 55.751 52.4438 56.0425 51.5415C56.0571 51.4838 56.079 51.426 56.1009 51.3683C57.9522 50.0762 59.7526 48.6903 61.4728 47.2322C61.9903 49.7658 62.311 52.3428 62.4495 54.9269C62.464 55.2806 62.4859 55.6271 62.5005 55.9808C60.168 56.6521 57.7919 57.1718 55.3865 57.5255C55.2189 57.5472 55.044 57.5688 54.8763 57.5977L54.8617 57.5905ZM45.0363 66.3607C44.271 66.0503 43.513 65.7183 42.7622 65.379C42.5363 65.278 42.3103 65.1625 42.0916 65.0542C41.5668 64.8088 41.0493 64.5489 40.5318 64.2891C40.2548 64.1447 39.9852 64.0003 39.7082 63.8488C39.4531 63.7116 39.2052 63.5672 38.9574 63.4301C39.0303 63.3868 39.0959 63.3435 39.1688 63.3002C40.0143 62.7877 40.8452 62.2607 41.6689 61.7121C41.8001 61.6255 41.9313 61.5317 42.0698 61.4378C42.8424 60.9109 43.6077 60.3767 44.3585 59.8209C44.4314 59.7704 44.5043 59.7199 44.5699 59.6693C46.844 59.6982 49.14 59.626 51.4068 59.4528C50.1677 62.1236 48.7099 64.6933 47.0481 67.1186C46.4941 66.9165 45.9402 66.7144 45.3862 66.4979C45.2696 66.4546 45.153 66.4112 45.0363 66.3679V66.3607ZM9.6853 41.6019C8.59926 40.447 7.57153 39.2415 6.59482 38C6.95927 37.5308 7.331 37.0688 7.71731 36.6141C7.79749 36.5202 7.87037 36.4264 7.95055 36.3326C8.48993 35.7046 9.03659 35.091 9.60513 34.4847C9.76548 34.3186 9.92584 34.1526 10.0862 33.9866C10.5017 33.5535 10.9171 33.1276 11.3472 32.7162C11.5585 32.5141 11.7699 32.312 11.9886 32.1098C12.2 31.9077 12.4186 31.7128 12.6373 31.5179C13.0965 33.4164 13.6359 35.3003 14.2554 37.1554C14.3502 37.437 14.4377 37.7185 14.5324 37.9928C14.3429 38.5486 14.1534 39.1116 13.9785 39.6674C13.9493 39.7685 13.9201 39.8623 13.891 39.9634C13.7306 40.4686 13.5776 40.9811 13.4318 41.4936C13.3735 41.6958 13.3225 41.8979 13.2641 42.1C13.1475 42.5186 13.0382 42.9373 12.9289 43.356C12.8705 43.5725 12.8195 43.7963 12.7612 44.0128C12.7248 44.1644 12.681 44.316 12.6446 44.4676C12.3312 44.1861 12.0177 43.9118 11.7116 43.623C11.646 43.5581 11.5804 43.5003 11.5148 43.4354C10.9244 42.8651 10.3413 42.2804 9.78006 41.6885C9.7509 41.6597 9.72175 41.6308 9.69259 41.5947L9.6853 41.6019ZM20.1594 18.4095C20.5239 18.359 20.8883 18.3229 21.26 18.2796C21.2309 18.3517 21.2017 18.4311 21.1653 18.5105C20.779 19.4273 20.4072 20.344 20.0574 21.2752C19.9991 21.4412 19.9408 21.6 19.8752 21.766C19.5399 22.6683 19.2264 23.5778 18.9349 24.4945C18.9203 24.5378 18.9057 24.5811 18.8912 24.6245C17.0471 25.9093 15.254 27.2952 13.5411 28.7461C12.9507 25.8732 12.6081 22.9498 12.5061 20.0192C14.8458 19.3479 17.2366 18.8209 19.6492 18.4745C19.8168 18.4528 19.9845 18.4311 20.1521 18.4095H20.1594ZM29.9702 9.64646C30.7356 9.95685 31.4936 10.2889 32.2444 10.6354C32.463 10.7364 32.6744 10.8447 32.8858 10.9458C33.4179 11.1984 33.9573 11.4583 34.4821 11.7326C34.7445 11.8697 35.0069 12.0141 35.2692 12.1512C35.5317 12.2884 35.7868 12.4399 36.0419 12.5843C35.969 12.6276 35.9034 12.6782 35.8305 12.7215C34.9923 13.234 34.1613 13.7609 33.345 14.3023C33.2065 14.3961 33.068 14.49 32.9295 14.5838C32.1642 15.1035 31.4061 15.6377 30.6627 16.179C30.5898 16.2368 30.5096 16.2873 30.4367 16.3378C28.1772 16.3017 25.8885 16.3739 23.6216 16.5544C24.8535 13.8908 26.3112 11.3211 27.9804 8.89576C28.5198 9.09065 29.0591 9.29277 29.5912 9.5021C29.7151 9.55263 29.839 9.59594 29.963 9.64646H29.9702ZM48.6954 11.4583C48.9432 11.8769 49.1983 12.2884 49.4388 12.7142C49.5919 12.9885 49.7377 13.2628 49.8834 13.5371C50.1386 14.0063 50.3937 14.4755 50.6342 14.9519C50.7581 15.1973 50.8747 15.45 50.9986 15.6954C51.1371 15.9841 51.2756 16.2801 51.4068 16.576C51.3048 16.5688 51.2027 16.5688 51.1007 16.5544C50.2989 16.4966 49.5044 16.4461 48.7027 16.41C48.6443 16.41 48.5787 16.4028 48.5204 16.4028C47.6676 16.3667 46.8221 16.3523 45.9693 16.3523C45.8673 16.3523 45.7579 16.3523 45.6559 16.3523C45.306 16.3523 44.9489 16.3523 44.599 16.3595C42.7914 15.0169 40.8963 13.7537 38.9574 12.5771C41.545 11.1262 44.2637 9.89189 47.0627 8.88854C47.1647 9.04013 47.2594 9.19171 47.3615 9.33608C47.828 10.029 48.2726 10.7364 48.7027 11.451L48.6954 11.4583ZM60.5544 32.709C60.4888 32.9399 60.4304 33.1782 60.3648 33.4091C60.1535 34.1671 59.9348 34.9178 59.7016 35.6685C59.6943 35.6973 59.6797 35.7334 59.6724 35.7623C59.0966 34.2753 58.4697 32.81 57.7846 31.3808C57.7554 31.222 57.7117 31.056 57.6825 30.8972C57.5878 30.428 57.493 29.966 57.3837 29.4968C57.3327 29.2586 57.2744 29.0204 57.2161 28.7894C57.0921 28.2553 56.9537 27.7211 56.8152 27.1942C56.786 27.0931 56.7641 26.9993 56.7423 26.8982C58.2438 28.0026 59.7016 29.172 61.101 30.3847V30.4063L61.1156 30.428C61.0864 30.5579 61.05 30.6878 61.0208 30.8178C60.8751 31.453 60.7147 32.081 60.5471 32.7162L60.5544 32.709ZM60.5252 43.1827C60.7293 43.9407 60.9188 44.7058 61.0937 45.4709C61.101 45.507 61.1083 45.5431 61.1156 45.5792C59.7161 46.7991 58.2584 47.9685 56.7569 49.0729C56.8006 48.9068 56.837 48.7408 56.8808 48.5748C56.9974 48.1273 57.114 47.687 57.2161 47.2394C57.2744 46.994 57.3327 46.7558 57.3837 46.5104C57.5149 45.9185 57.6388 45.3338 57.7554 44.7419C57.77 44.6697 57.7846 44.5975 57.7992 44.5253C57.9522 44.2077 58.0907 43.8901 58.2365 43.5653C58.3458 43.3271 58.4552 43.0817 58.5645 42.8435C58.7176 42.4898 58.8706 42.1361 59.0164 41.7824C59.1403 41.4864 59.2569 41.1977 59.3736 40.9017C59.4683 40.6708 59.5631 40.4398 59.6578 40.2088C59.6578 40.216 59.6578 40.2232 59.6578 40.2304C59.9129 41.0389 60.1462 41.8546 60.3721 42.6702C60.4159 42.8363 60.4596 43.0023 60.5106 43.1755L60.5252 43.1827ZM53.2728 55.0352C53.1853 55.259 53.0978 55.4827 53.0104 55.7065C52.7698 56.3201 52.5147 56.9336 52.2596 57.54C52.2086 57.6627 52.1576 57.7926 52.0993 57.9153C50.2479 58.0813 48.3819 58.1824 46.516 58.204C47.0918 57.7421 47.6603 57.2657 48.2216 56.7892C48.2799 56.7387 48.3455 56.681 48.4038 56.6304C48.9723 56.1396 49.5336 55.6415 50.0802 55.129C51.4506 54.3855 52.799 53.5771 54.1183 52.7181C54.1037 52.7686 54.0818 52.812 54.0673 52.8625C53.8122 53.5915 53.5497 54.3206 53.2728 55.0424V55.0352ZM42.0552 59.6838C41.4356 60.1169 40.8015 60.5355 40.1674 60.9542C39.956 61.0914 39.7446 61.2285 39.526 61.3657C38.9866 61.7121 38.4399 62.0442 37.886 62.369C37.7693 62.4412 37.6527 62.5134 37.5361 62.5783C35.9398 61.6399 34.3727 60.6366 32.8566 59.5755C34.431 59.4961 36.0127 59.359 37.5652 59.1568C37.8276 59.1929 38.0828 59.2146 38.3452 59.2435C38.7023 59.2868 39.0668 59.3229 39.4312 59.359C39.7373 59.3878 40.0508 59.4167 40.3569 59.4384C40.8598 59.4817 41.3627 59.5105 41.8657 59.5394C41.9823 59.5394 42.0989 59.5611 42.2155 59.5611C42.1572 59.6044 42.0989 59.6405 42.0406 59.6766L42.0552 59.6838ZM34.1468 64.4479C34.1468 64.4479 34.0885 64.4767 34.0593 64.4912C32.0913 65.4873 30.0504 66.3607 27.9731 67.1042C26.3039 64.6716 24.8316 62.0875 23.5925 59.4167C23.6799 59.4167 23.7674 59.4311 23.8622 59.4384C24.1319 59.46 24.4088 59.4745 24.6785 59.4961C24.9774 59.5178 25.2835 59.5322 25.5823 59.5539C25.8666 59.5683 26.1509 59.5827 26.4351 59.5899C26.7267 59.6044 27.0255 59.6116 27.3171 59.6188C27.6086 59.626 27.9002 59.6333 28.1918 59.6333C28.476 59.6333 28.7603 59.6405 29.0446 59.6405C29.1539 59.6405 29.2632 59.6405 29.3798 59.6405C29.6933 59.6405 30.0067 59.6405 30.3201 59.6333C30.3493 59.6333 30.3784 59.6333 30.4076 59.6333C32.2225 60.9831 34.1176 62.2463 36.0564 63.4157C35.9836 63.459 35.9107 63.4951 35.8378 63.5384C35.2765 63.8488 34.7153 64.1519 34.1468 64.4407V64.4479ZM14.4449 43.291C14.5033 43.06 14.5689 42.8218 14.6344 42.5908C14.8458 41.8329 15.0645 41.075 15.2977 40.3243C15.305 40.2954 15.3123 40.2665 15.3269 40.2377C15.8954 41.7246 16.5296 43.1972 17.2147 44.6192C17.2512 44.7924 17.2876 44.9657 17.324 45.1389C17.4261 45.673 17.5427 46.2144 17.6593 46.7486C17.6666 46.7919 17.6812 46.8352 17.6885 46.8785C17.8561 47.622 18.0384 48.3583 18.2352 49.0945C16.7409 47.9901 15.2832 46.828 13.891 45.6153V45.6009L13.8837 45.5936C13.9129 45.4565 13.9493 45.3194 13.9785 45.1894C14.1242 44.5542 14.2846 43.9262 14.4522 43.291H14.4449ZM14.2481 31.9799C14.2481 31.9799 14.2336 31.9366 14.2336 31.9077C14.1097 31.4097 13.993 30.9116 13.8837 30.4135C15.2759 29.2009 16.7264 28.0387 18.2206 26.9343C18.1841 27.0642 18.1623 27.1942 18.1258 27.3169C17.9655 27.916 17.8197 28.5151 17.6812 29.1215C17.6812 29.1359 17.6739 29.1576 17.6666 29.172C17.4844 29.9516 17.3168 30.7311 17.171 31.5107C17.0325 31.7995 16.9086 32.0882 16.7774 32.3769C16.6608 32.6368 16.5368 32.8966 16.4202 33.1565C16.2744 33.4958 16.1287 33.835 15.9829 34.1743C15.8517 34.4919 15.7205 34.8167 15.5893 35.1343C15.5018 35.3509 15.4144 35.5602 15.3269 35.7767C15.1957 35.3653 15.0791 34.9611 14.9552 34.5496C14.8823 34.297 14.8021 34.0444 14.7292 33.7917C14.5616 33.1926 14.3939 32.5863 14.2409 31.9799H14.2481ZM21.7338 20.9648C21.8213 20.741 21.916 20.51 22.0035 20.2863C22.244 19.6799 22.4991 19.0736 22.7615 18.4745C22.8199 18.3445 22.8709 18.2146 22.9292 18.0847C24.766 17.9186 26.6174 17.8248 28.4687 17.7959C27.2442 18.7776 26.0488 19.8026 24.9118 20.8637C23.5415 21.6144 22.193 22.4157 20.881 23.2674C20.9029 23.2024 20.9247 23.1447 20.9466 23.087C21.2017 22.3723 21.4641 21.6649 21.7411 20.9576L21.7338 20.9648ZM32.9004 16.3523C33.5418 15.9047 34.1905 15.4716 34.8465 15.0458C35.0506 14.9158 35.2547 14.7859 35.4515 14.656C36.0054 14.3023 36.5667 13.9558 37.1279 13.6238C37.2445 13.5588 37.3539 13.4866 37.4705 13.4216C39.0668 14.36 40.6412 15.3634 42.1645 16.4317C40.5756 16.5111 38.9939 16.6482 37.4195 16.8503C36.3626 16.7132 35.2984 16.6194 34.2269 16.5399C34.1176 16.5327 34.0083 16.5255 33.8917 16.5183C33.5199 16.4894 33.1482 16.4605 32.7692 16.4389C32.8056 16.41 32.8493 16.3884 32.8858 16.3595L32.9004 16.3523ZM48.9869 17.8826C49.2274 17.897 49.4607 17.9042 49.7012 17.9186C50.3645 17.9547 51.0205 18.0053 51.6838 18.0558C51.8223 18.0702 51.9681 18.0774 52.1066 18.0919C52.1576 18.2146 52.2086 18.3373 52.2669 18.4672C52.5293 19.0736 52.7771 19.6871 53.025 20.3079C53.1124 20.5317 53.1999 20.7482 53.2873 20.972C53.5716 21.7155 53.8486 22.4662 54.1037 23.2169C54.1037 23.2241 54.1037 23.2385 54.111 23.2458C52.7626 22.3723 51.385 21.5422 49.9782 20.7771L49.9636 20.7915C49.6283 20.4811 49.2858 20.1852 48.9505 19.882C48.8922 19.8315 48.8339 19.781 48.7755 19.7304C48.4111 19.4056 48.0394 19.0952 47.6676 18.7776C47.5291 18.6621 47.3834 18.5394 47.2449 18.4239C46.9898 18.2146 46.7419 17.998 46.4868 17.7887C46.5306 17.7887 46.5743 17.7887 46.6107 17.7887C47.4052 17.7959 48.1924 17.8248 48.9869 17.8609V17.8826ZM62.4859 19.9975C62.3839 22.9354 62.034 25.866 61.4436 28.7461C61.2832 28.609 61.1083 28.479 60.948 28.3419C60.496 27.9665 60.0441 27.6056 59.5849 27.2447C59.0601 26.826 58.528 26.4218 57.9887 26.0176C57.6607 25.7722 57.34 25.534 57.0047 25.2958C56.6913 25.072 56.3924 24.8338 56.079 24.6172C56.079 24.61 56.079 24.6028 56.0717 24.5956V24.5811C56.0498 24.5162 56.028 24.4584 56.0061 24.3935C55.7218 23.4984 55.423 22.6105 55.1023 21.7299C55.044 21.5711 54.9929 21.4123 54.9273 21.2535C54.5848 20.3296 54.2276 19.4201 53.8486 18.5105C53.8121 18.4239 53.783 18.3373 53.7466 18.2579C56.458 18.5683 59.1549 19.0952 61.7862 19.8098C62.0121 19.8748 62.2454 19.9326 62.4713 19.9975H62.4859ZM58.9289 38.0072C58.9071 38.0794 58.8852 38.1371 58.8633 38.2021C58.8633 38.0722 58.8633 37.9422 58.8633 37.8123C58.8852 37.8773 58.9071 37.9422 58.9362 38.0072H58.9289ZM56.458 32.016C56.458 32.016 56.4726 32.0521 56.4799 32.0738C57.7263 35.9861 57.7117 40.1077 56.4289 44.0128H56.4507L56.4361 44.0634H56.4289C55.1314 48.0479 52.6386 51.4621 49.2129 53.9236L49.2274 53.9452C45.8235 56.3922 41.8001 57.6843 37.5944 57.6915V57.7132L37.4996 57.6987L37.4049 57.7132C37.4049 57.7132 37.3903 57.7132 37.383 57.7132C33.2284 57.6843 29.2559 56.3922 25.8812 53.9741L25.7646 53.8947C25.6844 53.8514 25.6042 53.8009 25.5167 53.7576C22.2513 51.3105 19.8606 47.9901 18.6069 44.1211L18.5632 43.984C18.5559 43.9695 18.5486 43.9479 18.5413 43.9334C17.3022 40.0211 17.3168 35.8995 18.5923 31.9944H18.5704L18.6069 31.8716C19.9043 27.916 22.3825 24.5306 25.7864 22.0836L25.7646 22.0547H25.7718L25.7864 22.0692C29.1903 19.6222 33.2138 18.3229 37.4195 18.3229H37.4268V18.294L37.5069 18.3012L37.6017 18.2868C37.6017 18.2868 37.6163 18.2868 37.6236 18.2868C41.7782 18.3157 45.7507 19.6077 49.1108 22.0259L49.1327 21.997L49.2785 22.098C49.3514 22.1341 49.417 22.1775 49.4898 22.2135C52.7626 24.6605 55.1606 27.981 56.4143 31.8572L56.4653 32.0016L56.458 32.016ZM26.0342 58.1174C25.801 58.103 25.5678 58.0958 25.3345 58.0813C24.6785 58.0452 24.0152 57.9947 23.3592 57.9442C23.2135 57.9297 23.0677 57.9225 22.9292 57.9081C22.8709 57.7782 22.8199 57.6482 22.7615 57.5255C22.4991 56.9192 22.244 56.3056 21.9962 55.6921C21.9087 55.4683 21.814 55.2445 21.7265 55.0208C21.4277 54.2628 21.1434 53.4977 20.8737 52.7253C22.2149 53.5915 23.5925 54.4216 24.9919 55.1796L25.0065 55.1579C26.1436 56.219 27.3244 57.2368 28.5416 58.204C28.5343 58.204 28.527 58.204 28.5198 58.204C27.6888 58.1968 26.8652 58.1679 26.0342 58.1246V58.1174ZM21.2673 57.7421C18.308 57.4172 15.3706 56.8398 12.5061 56.0313C12.6009 53.0863 12.9507 50.1484 13.5484 47.2539C15.2613 48.712 17.0544 50.0907 18.8984 51.3755C18.9203 51.4477 18.9495 51.5271 18.9786 51.5993C19.2702 52.4944 19.5763 53.3894 19.9043 54.2701C19.9626 54.4289 20.0209 54.5877 20.0792 54.7465C20.4291 55.6704 20.7936 56.5871 21.1799 57.4966C21.2163 57.576 21.2455 57.6627 21.2819 57.7421H21.2673ZM54.8399 25.5484C54.8399 25.5484 54.8617 25.6134 54.869 25.6495C54.8326 25.5989 54.7889 25.5412 54.7524 25.4907C54.7816 25.5123 54.8107 25.5267 54.8399 25.5484ZM44.1179 17.8176C44.1763 17.8609 44.2419 17.9114 44.3002 17.9547C44.1617 17.9114 44.0232 17.8609 43.8847 17.8176C43.9576 17.8176 44.0378 17.8176 44.1107 17.8176H44.1179ZM31.0854 17.8248C30.9397 17.8681 30.8012 17.9114 30.6627 17.962C30.7283 17.9114 30.7866 17.8681 30.8522 17.8176C30.9324 17.8176 31.0125 17.8176 31.0927 17.8176L31.0854 17.8248ZM20.1376 25.5556C20.1959 25.5195 20.2542 25.4762 20.3052 25.4401C20.225 25.5412 20.1521 25.6495 20.072 25.7577C20.0938 25.6928 20.1084 25.6278 20.1303 25.5628L20.1376 25.5556ZM16.0704 37.9928C16.0922 37.9206 16.1214 37.8556 16.1432 37.7907C16.1432 37.9278 16.1432 38.0649 16.1432 38.2021C16.1214 38.1371 16.0922 38.0649 16.0704 38V37.9928ZM30.9105 58.1824C30.8595 58.1463 30.8085 58.103 30.7574 58.0669C30.8741 58.103 30.9907 58.1463 31.1073 58.1824C31.0417 58.1824 30.9761 58.1824 30.9178 58.1824H30.9105ZM20.1521 50.4299C20.1376 50.3938 20.1303 50.3577 20.123 50.3216C20.1667 50.3794 20.2031 50.4371 20.2469 50.4949C20.2177 50.4732 20.1813 50.4516 20.1521 50.4299ZM44.1544 58.1824C44.0742 58.1824 44.0013 58.1824 43.9211 58.1824C44.0596 58.1391 44.1981 58.0958 44.3366 58.0452C44.2783 58.0885 44.2127 58.1391 44.1544 58.1824ZM54.8472 50.4444C54.7962 50.4804 54.7378 50.5165 54.6868 50.5598C54.7597 50.4588 54.8326 50.3649 54.9055 50.2639C54.8836 50.3216 54.869 50.3866 54.8545 50.4444H54.8472ZM63.2002 43.7241C62.9305 43.984 62.6463 44.2366 62.3693 44.4892C62.3401 44.381 62.311 44.2655 62.2818 44.1572C62.0559 43.2477 61.8226 42.3454 61.5602 41.4503C61.5019 41.2482 61.4363 41.0461 61.378 40.8368C61.1229 39.9706 60.8532 39.1116 60.5616 38.2598C60.5325 38.1732 60.5106 38.0866 60.4815 38C60.5106 37.9206 60.5325 37.834 60.5616 37.7546C60.8605 36.8739 61.1375 35.9861 61.4072 35.0838C61.4582 34.9178 61.5092 34.759 61.5529 34.6002C61.8226 33.6546 62.0777 32.7017 62.311 31.7489C62.3328 31.6767 62.3547 31.5973 62.3693 31.5252C64.556 33.503 66.5823 35.6685 68.4118 37.9783C66.9175 39.8912 65.2848 41.7102 63.5355 43.4065C63.4262 43.5076 63.3168 43.6158 63.2075 43.7169L63.2002 43.7241ZM59.0747 8.5565C61.2395 10.1157 62.4203 13.5444 62.5078 18.4889C59.4246 17.6155 56.2539 17.0091 53.0687 16.6771C52.8646 16.2151 52.6386 15.7604 52.42 15.2984C52.3034 15.0602 52.2013 14.822 52.0847 14.5838C51.6984 13.797 51.2829 13.0246 50.8602 12.2595C50.831 12.2017 50.7946 12.144 50.7581 12.0863C50.3572 11.3716 49.9345 10.6642 49.4971 9.96407C49.4388 9.87023 49.3805 9.78361 49.3222 9.68977C49.0452 9.24224 48.761 8.80192 48.4694 8.3616H48.4986V8.34717C53.2801 6.92516 56.9245 6.99013 59.0747 8.54206V8.5565ZM37.4996 1.60527C40.1892 1.60527 43.185 3.69136 46.188 7.64699C43.185 8.75139 40.2694 10.1157 37.4996 11.7181C36.9457 11.3933 36.3772 11.0901 35.8086 10.787C35.6847 10.722 35.5608 10.6498 35.4369 10.5848C34.6716 10.1878 33.8989 9.80527 33.119 9.44435C32.8785 9.33608 32.638 9.23502 32.3974 9.12675C31.8508 8.88132 31.2968 8.6359 30.7429 8.41213C30.4367 8.28942 30.1306 8.17393 29.8245 8.05122C29.4892 7.92129 29.1612 7.78414 28.8259 7.66143C31.8581 3.7058 34.8465 1.6197 37.4996 1.6197V1.60527ZM15.9027 8.58537C17.0252 7.76249 18.5559 7.35104 20.4437 7.35104C22.1784 7.35104 24.2193 7.69752 26.5226 8.3977C24.7368 11.0396 23.1843 13.8331 21.8942 16.7421C21.486 16.7854 21.0778 16.8431 20.6696 16.8936C17.8999 17.2329 15.152 17.7743 12.4697 18.525C12.5571 13.5949 13.7379 10.1662 15.91 8.58537H15.9027ZM2.5495 26.7539C3.38043 24.2347 6.29598 22.0692 11.0119 20.4523H11.0337C11.1649 23.6139 11.5731 26.7683 12.2583 29.8577L12.2437 29.8722V29.901C11.7699 30.3269 11.3034 30.7672 10.8369 31.2076C10.7422 31.3014 10.6401 31.388 10.5381 31.4819C9.91855 32.081 9.31357 32.6873 8.72317 33.3153C8.54095 33.503 8.37331 33.6979 8.19837 33.8928C7.7902 34.3331 7.38931 34.7806 6.99571 35.2354C6.78433 35.4808 6.58024 35.7334 6.36887 35.9861C6.14291 36.2604 5.90238 36.5275 5.68371 36.809C2.84105 32.81 1.73314 29.2658 2.5495 26.7611V26.7539ZM2.56407 49.2461C1.73314 46.7269 2.8119 43.2621 5.68371 39.2054C5.88051 39.4581 6.09918 39.6963 6.30327 39.9417C6.55109 40.2377 6.79162 40.5408 7.04673 40.8296C7.32371 41.1544 7.61526 41.472 7.90682 41.7896C8.20566 42.1216 8.50451 42.4537 8.81064 42.7785C8.93455 42.9084 9.05846 43.0311 9.18237 43.1539C10.1737 44.1716 11.1941 45.1605 12.2583 46.0989C11.5658 49.2028 11.1649 52.3716 11.0337 55.5477C6.31056 53.9308 3.39501 51.7653 2.57136 49.2461H2.56407ZM15.9027 67.4435C13.7452 65.8843 12.5644 62.4845 12.4697 57.5616C15.5528 58.4206 18.7162 59.0053 21.9015 59.3229C23.1843 62.2174 24.7295 65.0037 26.508 67.6311C21.7119 69.0604 18.0602 68.9954 15.9027 67.4435ZM37.4996 74.3947C34.8173 74.3947 31.8289 72.3086 28.8259 68.353C31.8289 67.2558 34.7445 65.8843 37.4996 64.2819C38.0755 64.6139 38.6586 64.9315 39.249 65.2491C39.351 65.3069 39.4531 65.3646 39.5551 65.4223C40.3204 65.8266 41.1004 66.2091 41.8803 66.5701C42.1062 66.6783 42.3467 66.7722 42.5727 66.8804C43.1339 67.1331 43.6952 67.3785 44.2564 67.6095C44.5553 67.7322 44.8541 67.8405 45.153 67.9632C45.4883 68.0931 45.8235 68.2375 46.1661 68.3602C43.1267 72.3158 40.1382 74.4019 37.4851 74.4019L37.4996 74.3947ZM59.1039 67.4218C56.9391 69.0026 53.2801 69.0604 48.484 67.6095C50.2625 64.9676 51.815 62.1741 53.1051 59.2723C53.506 59.229 53.9069 59.1713 54.3078 59.128C57.0849 58.7887 59.84 58.2473 62.5369 57.4966V57.5327C62.4422 62.4412 61.2614 65.8554 59.0966 67.429L59.1039 67.4218ZM72.4206 49.2461C71.597 51.7653 68.6742 53.9308 63.9437 55.5549C63.9218 55.0496 63.8854 54.5516 63.8489 54.0463C63.8416 53.938 63.8344 53.8297 63.8271 53.7215C63.6448 51.1662 63.2804 48.6181 62.741 46.1206C63.0399 45.8607 63.3241 45.5792 63.6157 45.3121C65.6639 43.4282 67.5663 41.3854 69.301 39.2127C72.1655 43.2694 73.237 46.7269 72.4134 49.2461H72.4206ZM69.3302 36.7945C69.1479 36.5708 68.9584 36.3542 68.7762 36.1377C68.4919 35.7912 68.2077 35.4447 67.9161 35.1054C67.7412 34.9033 67.5517 34.7012 67.3767 34.4991C65.9263 32.875 64.381 31.3303 62.7483 29.8866L62.741 29.8649C63.2221 27.6778 63.5501 25.4546 63.7542 23.2169C63.7687 23.0364 63.7906 22.8632 63.8052 22.6827C63.8416 22.1919 63.8708 21.7083 63.9 21.2174C63.9145 20.9576 63.9364 20.6977 63.951 20.4378C68.696 22.0403 71.6262 24.213 72.4571 26.7466C73.288 29.2658 72.2093 32.7306 69.3374 36.7873L69.3302 36.7945Z" fill="white"/>
</svg>
