<svg width="57" height="71" viewBox="0 0 57 71" fill="none" xmlns="http://www.w3.org/2000/svg">
<g clip-path="url(#clip0_1_722)">
<path d="M25.8658 71H56.482C56.7686 71 57 70.7717 57 70.4889C57 70.2062 56.7686 69.9779 56.482 69.9779H25.8658C25.5791 69.9779 25.3477 70.2062 25.3477 70.4889C25.3477 70.7717 25.5791 71 25.8658 71Z" fill="white"/>
<path d="M0.518057 71H23.3015C23.5881 71 23.8195 70.7717 23.8195 70.4889C23.8195 70.2062 23.5881 69.9779 23.3015 69.9779H0.518057C0.231407 69.9779 1.52588e-05 70.2062 1.52588e-05 70.4889C1.52588e-05 70.7717 0.231407 71 0.518057 71Z" fill="white"/>
<path d="M15.0439 71C15.2684 71 15.4756 70.8535 15.5412 70.6304C15.5481 70.6065 16.2958 68.1058 18.2626 65.6495C20.8666 62.3959 24.2754 60.7452 28.3921 60.7452C32.5087 60.7452 36.0107 62.3993 38.7805 65.6631C40.8699 68.1246 41.742 70.627 41.7506 70.6525C41.8421 70.92 42.1357 71.0647 42.4068 70.9728C42.6779 70.8825 42.8229 70.5929 42.7331 70.3254C42.6969 70.2164 41.8041 67.6408 39.599 65.0328C36.6617 61.5578 32.7868 59.7214 28.3921 59.7214C22.8335 59.7214 19.3609 62.6156 17.4251 65.0447C15.3443 67.6561 14.5759 70.2386 14.5448 70.3459C14.4654 70.6167 14.6243 70.8995 14.8988 70.9779C14.9472 70.9915 14.9955 70.9983 15.0421 70.9983L15.0439 71Z" fill="white"/>
<path d="M49.6473 71C49.7526 71 49.858 70.9694 49.9495 70.9046C50.1826 70.7394 50.2344 70.4209 50.0686 70.1909L40.2431 56.7046C40.0756 56.4764 39.7527 56.4236 39.5196 56.5871C39.2865 56.7523 39.2347 57.0709 39.4005 57.3009L49.226 70.7871C49.3278 70.9268 49.4867 71 49.6473 71Z" fill="white"/>
<path d="M17.8327 65.8743C18.0123 65.8743 18.1849 65.7823 18.2816 65.6188L23.1806 57.2599C23.3239 57.0163 23.2393 56.7029 22.9906 56.5615C22.742 56.4201 22.426 56.5036 22.2826 56.7472L17.3837 65.106C17.2404 65.3496 17.325 65.6631 17.5737 65.8045C17.6548 65.8505 17.7446 65.8726 17.8327 65.8726V65.8743Z" fill="white"/>
<path d="M16.5946 67.6595C16.6326 67.6595 16.6723 67.6544 16.7103 67.6459C16.99 67.5829 17.1644 67.3086 17.1005 67.0343L15.5499 60.3415C15.486 60.0672 15.2079 59.8952 14.9299 59.9565C14.6502 60.0195 14.4758 60.2938 14.5397 60.568L16.0903 67.2609C16.1456 67.4977 16.358 67.6578 16.5946 67.6578V67.6595Z" fill="white"/>
<path d="M8.71171 68.5931C8.81013 68.5931 8.91029 68.5658 8.99835 68.5079L21.2207 60.4829C21.459 60.3262 21.5229 60.0093 21.3657 59.7743C21.2068 59.5392 20.8857 59.4762 20.6474 59.6329L8.42506 67.6579C8.18676 67.8146 8.12287 68.1314 8.28001 68.3665C8.38016 68.5147 8.54421 68.5948 8.71171 68.5948V68.5931Z" fill="white"/>
<path d="M40.1447 67.094C40.376 67.094 40.5867 66.939 40.6472 66.7073L42.3705 59.9378C42.4396 59.6635 42.2721 59.3858 41.9941 59.3177C41.7178 59.2496 41.4346 59.4148 41.3655 59.6891L39.6422 66.4586C39.5731 66.7328 39.7406 67.0105 40.0186 67.0786C40.0618 67.0889 40.1032 67.094 40.1447 67.094Z" fill="white"/>
<path d="M47.4024 68.0325C47.5734 68.0325 47.7409 67.9491 47.8393 67.7975C47.993 67.5607 47.9239 67.2438 47.6822 67.0922L35.7431 59.5459C35.5013 59.3943 35.1819 59.4625 35.0282 59.701C34.8745 59.9377 34.9436 60.2546 35.1853 60.4062L47.1244 67.9525C47.2108 68.007 47.3075 68.0325 47.4042 68.0325H47.4024Z" fill="white"/>
<path d="M38.6165 65.2151C38.7132 65.2151 38.8116 65.1878 38.8979 65.1316C39.138 64.9783 39.2053 64.6615 39.0499 64.4247L34.22 57.11C34.0646 56.8733 33.7434 56.8068 33.5034 56.9601C33.2634 57.1134 33.196 57.4303 33.3515 57.6671L38.1813 64.9817C38.2815 65.1316 38.4472 65.2134 38.6165 65.2134V65.2151Z" fill="white"/>
<path d="M7.63768 70.1585C7.79654 70.1585 7.95195 70.087 8.05383 69.9524L17.439 57.5155H39.8218C40.1085 57.5155 40.3398 57.2872 40.3398 57.0044C40.3398 56.7217 40.1085 56.4934 39.8218 56.4934H17.18C17.0159 56.4934 16.8622 56.5701 16.7638 56.6995L7.22324 69.3426C7.05228 69.5691 7.10064 69.8894 7.32858 70.058C7.42182 70.1262 7.53061 70.1585 7.63768 70.1585Z" fill="white"/>
<path d="M16.883 57.5155C17.1696 57.5155 17.401 57.2872 17.401 57.0044V54.2704C17.401 54.221 17.3941 54.1716 17.3786 54.1239L16.7241 51.9724C16.6412 51.7016 16.3528 51.5483 16.0783 51.63C15.8037 51.7118 15.6483 51.9963 15.7312 52.2671L16.3632 54.347V57.0061C16.3632 57.2889 16.5946 57.5172 16.8812 57.5172L16.883 57.5155Z" fill="white"/>
<path d="M39.8183 57.5155C40.105 57.5155 40.3364 57.2872 40.3364 57.0045V54.3454L40.9684 52.2654C41.015 52.1104 40.9857 51.9435 40.8872 51.814C40.7888 51.6846 40.6351 51.6079 40.4711 51.6079H16.2268C15.9401 51.6079 15.7087 51.8362 15.7087 52.1189C15.7087 52.4017 15.9401 52.63 16.2268 52.63H39.7752L39.321 54.1239C39.3072 54.1716 39.2986 54.221 39.2986 54.2704V57.0045C39.2986 57.2872 39.53 57.5155 39.8166 57.5155H39.8183Z" fill="white"/>
<path d="M17.5374 55.0727H39.8183C40.105 55.0727 40.3364 54.8445 40.3364 54.5617C40.3364 54.2789 40.105 54.0507 39.8183 54.0507H17.5374C17.2508 54.0507 17.0194 54.2789 17.0194 54.5617C17.0194 54.8445 17.2508 55.0727 17.5374 55.0727Z" fill="white"/>
<path d="M18.9689 52.3387C19.1727 52.3387 19.3644 52.2195 19.4472 52.0236L23.0787 43.3871H33.4378L36.9259 51.7408C37.0347 52.0014 37.3369 52.1258 37.6028 52.0185C37.867 51.9111 37.9931 51.613 37.8843 51.3507L34.2649 42.6801C34.1855 42.4893 33.9956 42.3633 33.7866 42.3633H22.7351C22.5261 42.3633 22.3362 42.4876 22.2568 42.6784L18.4923 51.6301C18.3835 51.8907 18.5079 52.1905 18.7721 52.2978C18.8377 52.3251 18.905 52.337 18.9706 52.337L18.9689 52.3387Z" fill="white"/>
<path d="M33.8764 43.6067C34.0749 43.6067 34.2649 43.4926 34.3512 43.3018L35.522 40.687C35.5928 40.5286 35.5773 40.3463 35.4823 40.2015C35.3873 40.0567 35.2233 39.9698 35.0489 39.9698H21.7577C21.585 39.9698 21.4244 40.055 21.3277 40.1947C21.231 40.3361 21.212 40.515 21.2759 40.6717L22.2533 43.0684C22.3603 43.3308 22.6625 43.4568 22.9267 43.3512C23.1926 43.2456 23.3204 42.9475 23.2134 42.6869L22.5226 40.9919H34.2511L33.4015 42.8896C33.2858 43.1485 33.405 43.45 33.6657 43.5641C33.733 43.5931 33.8056 43.6084 33.8746 43.6084L33.8764 43.6067Z" fill="white"/>
<path d="M26.6152 40.4264C26.8638 40.4264 27.0849 40.2492 27.1263 39.9988L28.3005 32.9295L29.3901 39.9937C29.4333 40.2731 29.6992 40.4639 29.9807 40.4213C30.2639 40.3787 30.4573 40.1181 30.4141 39.8387L28.8307 29.5771C28.7927 29.3284 28.5768 29.1444 28.3213 29.1427H28.3178C28.064 29.1427 27.8481 29.3233 27.8067 29.5703L26.1023 39.8319C26.0557 40.1112 26.2474 40.3736 26.5306 40.4196C26.5582 40.4247 26.5875 40.4264 26.6152 40.4264Z" fill="white"/>
<path d="M31.6868 52.63C31.7214 52.63 31.7542 52.6266 31.7887 52.6197C32.0684 52.5652 32.2515 52.2961 32.1945 52.0184L30.4073 43.1996C30.352 42.9237 30.0792 42.7431 29.7977 42.7993C29.518 42.8538 29.3349 43.123 29.3919 43.4006L31.1791 52.2194C31.2292 52.463 31.4451 52.63 31.6868 52.63Z" fill="white"/>
<path d="M25.1146 52.63C25.3633 52.63 25.5826 52.4528 25.6257 52.2041L27.1263 43.3853C27.1729 43.1077 26.983 42.8436 26.7015 42.7959C26.4183 42.7482 26.1524 42.9373 26.1041 43.215L24.6035 52.0338C24.5568 52.3114 24.7468 52.5755 25.0283 52.6232C25.0576 52.6283 25.087 52.63 25.1146 52.63Z" fill="white"/>
<path d="M37.0019 51.9434C37.1245 51.9434 37.2471 51.9009 37.3473 51.814C37.5614 51.6266 37.5787 51.3029 37.3887 51.0917L30.3054 43.266C30.1154 43.0548 29.7873 43.0378 29.5732 43.2252C29.3591 43.4125 29.3418 43.7362 29.5318 43.9474L36.6151 51.7731C36.717 51.8855 36.8586 51.9434 37.0019 51.9434Z" fill="white"/>
<path d="M31.6868 51.7748C31.8854 51.7748 32.0736 51.6623 32.1599 51.4733L35.0817 45.0614C35.1991 44.8042 35.0817 44.501 34.8209 44.3852C34.5602 44.2693 34.2528 44.3852 34.1354 44.6424L31.2136 51.0542C31.0962 51.3114 31.2136 51.6146 31.4744 51.7305C31.5435 51.7611 31.616 51.7748 31.6868 51.7748Z" fill="white"/>
<path d="M19.5163 52.5431C19.6717 52.5431 19.8271 52.4733 19.929 52.3421L26.6877 43.5983C26.8604 43.3734 26.8172 43.0532 26.5893 42.8811C26.3613 42.7108 26.0367 42.7534 25.8623 42.9782L19.1036 51.722C18.9309 51.9469 18.9741 52.2672 19.202 52.4392C19.2953 52.509 19.4058 52.5431 19.5163 52.5431Z" fill="white"/>
<path d="M25.1146 51.7748C25.194 51.7748 25.2752 51.756 25.3512 51.7168C25.605 51.5874 25.7052 51.2791 25.5739 51.0286L22.3811 44.9337C22.2498 44.6833 21.9373 44.5845 21.6834 44.7139C21.4296 44.8434 21.3294 45.1517 21.4607 45.4021L24.6535 51.4971C24.7451 51.6726 24.9264 51.7731 25.1146 51.7731V51.7748Z" fill="white"/>
<path d="M26.6152 47.0357H30.5558C30.8424 47.0357 31.0738 46.8075 31.0738 46.5247C31.0738 46.2419 30.8424 46.0137 30.5558 46.0137H26.6152C26.3285 46.0137 26.0971 46.2419 26.0971 46.5247C26.0971 46.8075 26.3285 47.0357 26.6152 47.0357Z" fill="white"/>
<path d="M33.1477 40.4264C33.1822 40.4264 33.2168 40.423 33.2513 40.4162C33.531 40.36 33.7123 40.0909 33.6554 39.8132C33.6364 39.7178 31.6954 30.2756 31.3086 26.1225C30.9201 21.944 29.9963 11.0793 29.9876 10.9703C29.9635 10.6892 29.7113 10.4797 29.4281 10.5036C29.1432 10.5274 28.9308 10.7744 28.955 11.0555C28.9636 11.1645 29.8892 22.0325 30.2777 26.2145C30.668 30.4238 32.5606 39.6258 32.64 40.0159C32.6901 40.2578 32.9059 40.4247 33.1477 40.4247V40.4264Z" fill="white"/>
<path d="M23.2755 40.4263C23.5173 40.4263 23.7331 40.2594 23.7832 40.0175C23.8627 39.6274 25.7552 30.4253 26.1455 26.2161C26.534 22.0324 27.4579 11.1661 27.4682 11.0571C27.4924 10.776 27.28 10.529 26.9951 10.5051C26.7102 10.4796 26.4598 10.6908 26.4356 10.9719C26.427 11.0809 25.5014 21.9438 25.1146 26.1241C24.7295 30.2771 22.7886 39.7194 22.7679 39.8148C22.7109 40.0907 22.8922 40.3616 23.1719 40.4178C23.2065 40.4246 23.241 40.428 23.2755 40.428V40.4263Z" fill="white"/>
<path d="M26.6152 10.8204H29.903C30.1258 10.8204 30.3227 10.6807 30.3935 10.4729L31.2862 7.86488C31.3397 7.70816 31.3138 7.53781 31.2154 7.40324C31.1187 7.26867 30.9616 7.19031 30.7941 7.19031H25.8641C25.7017 7.19031 25.548 7.26526 25.4513 7.39302C25.3529 7.52078 25.3218 7.68601 25.3667 7.84103L26.1162 10.449C26.1801 10.6688 26.3821 10.8204 26.6152 10.8204ZM29.5301 9.7983H27.0055L26.5496 8.21238H30.0723L29.5283 9.7983H29.5301Z" fill="white"/>
<path d="M25.5429 6.44932H30.7958C31.0825 6.44932 31.3138 6.22106 31.3138 5.93828C31.3138 5.65551 31.0825 5.42725 30.7958 5.42725H25.5429C25.2562 5.42725 25.0248 5.65551 25.0248 5.93828C25.0248 6.22106 25.2562 6.44932 25.5429 6.44932Z" fill="white"/>
<path d="M28.4007 4.61636C28.6874 4.61636 28.9188 4.3881 28.9188 4.10533V0.511036C28.9188 0.228263 28.6874 0 28.4007 0C28.1141 0 27.8827 0.228263 27.8827 0.511036V4.10533C27.8827 4.3881 28.1141 4.61636 28.4007 4.61636Z" fill="white"/>
</g>
<defs>
<clipPath id="clip0_1_722">
<rect width="57" height="71" fill="white" transform="matrix(-1 0 0 1 57 0)"/>
</clipPath>
</defs>
</svg>
