<svg width="70" height="69" viewBox="0 0 70 69" fill="none" xmlns="http://www.w3.org/2000/svg">
<g clip-path="url(#clip0_1_790)">
<path d="M13.0272 69H12.1863V65.7627C12.1863 65.252 11.6649 64.8358 11.0225 64.8358H4.12373C3.48128 64.8358 2.95992 65.252 2.95992 65.7627V69H2.11902V65.7627C2.11902 64.7869 3.01878 63.9932 4.12373 63.9932H11.0225C12.1274 63.9932 13.0272 64.7869 13.0272 65.7627V69Z" fill="white"/>
<path d="M26.9072 69H26.0663V65.7627C26.0663 65.252 25.5449 64.8358 24.9025 64.8358H18.0037C17.3613 64.8358 16.8399 65.252 16.8399 65.7627V69H15.999V65.7627C15.999 64.7869 16.8988 63.9932 18.0037 63.9932H24.9025C26.0074 63.9932 26.9072 64.7869 26.9072 65.7627V69Z" fill="white"/>
<path d="M54.0565 69H53.2156V65.7627C53.2156 65.252 52.6942 64.8358 52.0518 64.8358H45.153C44.5106 64.8358 43.9892 65.252 43.9892 65.7627V69H43.1483V65.7627C43.1483 64.7869 44.0481 63.9932 45.153 63.9932H52.0518C53.1567 63.9932 54.0565 64.7869 54.0565 65.7627V69Z" fill="white"/>
<path d="M67.9381 69H67.0972V65.7627C67.0972 65.252 66.5758 64.8358 65.9334 64.8358H59.0346C58.3922 64.8358 57.8708 65.252 57.8708 65.7627V69H57.0299V65.7627C57.0299 64.7869 57.9297 63.9932 59.0346 63.9932H65.9334C67.0383 63.9932 67.9381 64.7869 67.9381 65.7627V69Z" fill="white"/>
<path d="M52.0518 35.6443H45.153C44.0481 35.6443 43.1483 34.8505 43.1483 33.8748V30.6375H43.9892V33.8748C43.9892 34.3854 44.5106 34.8016 45.153 34.8016H52.0518C52.6942 34.8016 53.2156 34.3854 53.2156 33.8748V30.6375H54.0565V33.8748C54.0565 34.8505 53.1567 35.6443 52.0518 35.6443Z" fill="white"/>
<path d="M24.9025 35.6443H18.0037C16.8988 35.6443 15.999 34.8505 15.999 33.8748V30.6375H16.8399V33.8748C16.8399 34.3854 17.3613 34.8016 18.0037 34.8016H24.9025C25.5449 34.8016 26.0663 34.3854 26.0663 33.8748V30.6375H26.9072V33.8748C26.9072 34.8505 26.0074 35.6443 24.9025 35.6443Z" fill="white"/>
<path d="M11.142 35.6443H4.76628C3.72693 35.6443 2.88098 34.8505 2.88098 33.8748V30.6375H3.72188V33.8748C3.72188 34.3854 4.18942 34.8016 4.76628 34.8016H11.142C11.7172 34.8016 12.1864 34.3854 12.1864 33.8748V30.6375H13.0273V33.8748C13.0273 34.8505 12.1814 35.6443 11.142 35.6443Z" fill="white"/>
<path d="M65.0385 35.2229L64.1976 35.2273L64.3494 64.2668L65.1903 64.2623L65.0385 35.2229Z" fill="white"/>
<path d="M61.0729 35.2218L60.2321 35.2262L60.3838 64.2657L61.2247 64.2612L61.0729 35.2218Z" fill="white"/>
<path d="M51.3101 35.2225L50.4692 35.2269L50.621 64.2664L51.4619 64.262L51.3101 35.2225Z" fill="white"/>
<path d="M47.3446 35.2231L46.5037 35.2275L46.6554 64.267L47.4963 64.2626L47.3446 35.2231Z" fill="white"/>
<path d="M24.0081 35.2208L23.1672 35.2252L23.319 64.2647L24.1599 64.2603L24.0081 35.2208Z" fill="white"/>
<path d="M20.0426 35.2214L19.2017 35.2258L19.3534 64.2653L20.1943 64.2609L20.0426 35.2214Z" fill="white"/>
<path d="M9.82404 35.2211L8.98315 35.2255L9.1349 64.2649L9.97579 64.2605L9.82404 35.2211Z" fill="white"/>
<path d="M5.85835 35.2217L5.01746 35.2261L5.1692 64.2655L6.01009 64.2611L5.85835 35.2217Z" fill="white"/>
<path d="M65.9334 35.6442H59.0346C57.9297 35.6442 57.0299 34.8505 57.0299 33.8748V31.084L2.88261 31.2121V26.1598L0 20.8951L70 20.7384L67.5967 26.0722L66.8298 25.725L68.6966 21.5827L1.41944 21.7327L3.72351 25.9424V30.3661L67.9381 30.2128V33.8714C67.9381 34.8471 67.0383 35.6409 65.9334 35.6409V35.6442ZM57.8708 31.0823V33.8748C57.8708 34.3854 58.3922 34.8016 59.0346 34.8016H65.9334C66.5759 34.8016 67.0972 34.3854 67.0972 33.8748V31.0604L57.8708 31.0823Z" fill="white"/>
<path d="M67.4033 20.7924H66.5624V12.3224L68.9371 7.8279L1.2765 7.63409L3.47126 12.0325V20.7924H2.63035V12.2314L0.35992 7.68128C0.264057 7.48916 0.274148 7.26503 0.386829 7.08134C0.49951 6.89933 0.694599 6.78979 0.908188 6.78979L69.3122 6.98528C69.5291 6.98528 69.7259 7.09819 69.8369 7.28357C69.9496 7.47063 69.9546 7.69645 69.8537 7.88856L67.4016 12.5297V20.789L67.4033 20.7924Z" fill="white"/>
<path d="M24.1927 7.50598H23.3518V21.3805H24.1927V7.50598Z" fill="white"/>
<path d="M47.1729 7.40833H46.332V20.8902H47.1729V7.40833Z" fill="white"/>
<path d="M23.969 12.1033H3.05078V12.9459H23.969V12.1033Z" fill="white"/>
<path d="M67.6707 12.1033H46.7524V12.9459H67.6707V12.1033Z" fill="white"/>
<path d="M51.1723 7.61218L44.2315 0.849355C44.2315 0.849355 44.2214 0.842614 44.2146 0.842614H26.0276C26.0276 0.842614 26.0142 0.845985 26.0108 0.85104L19.8571 7.49927L19.2399 6.92629L25.3936 0.278063C25.5567 0.101114 25.7871 0 26.0276 0H44.2146C44.4417 0 44.6553 0.0876319 44.8167 0.246043L51.7575 7.00887L51.1706 7.61386L51.1723 7.61218Z" fill="white"/>
<path d="M42.6926 18.5071H28.5183C27.7531 18.5071 27.1309 17.8836 27.1309 17.1168V12.5583C27.1309 11.7915 27.7531 11.168 28.5183 11.168H42.6926C43.4578 11.168 44.0801 11.7915 44.0801 12.5583V17.1168C44.0801 17.8836 43.4578 18.5071 42.6926 18.5071ZM28.5183 12.0123C28.2173 12.0123 27.9718 12.2583 27.9718 12.56V17.1185C27.9718 17.4202 28.2173 17.6662 28.5183 17.6662H42.6926C42.9936 17.6662 43.2392 17.4202 43.2392 17.1185V12.56C43.2392 12.2583 42.9936 12.0123 42.6926 12.0123H28.5183Z" fill="white"/>
<path d="M67.6287 30.3088L66.7878 30.3004L66.8315 25.9441C62.7498 25.7705 23.991 26.2086 3.30648 26.4732L3.29639 25.6306C3.45616 25.6289 19.3845 25.425 35.1497 25.2632C44.4097 25.1689 51.8013 25.1065 57.1208 25.0795C67.3125 25.0273 67.368 25.0829 67.5514 25.2632L67.6775 25.5649L67.6287 30.3088Z" fill="white"/>
</g>
<defs>
<clipPath id="clip0_1_790">
<rect width="70" height="69" fill="white"/>
</clipPath>
</defs>
</svg>
