<svg width="66" height="69" viewBox="0 0 66 69" fill="none" xmlns="http://www.w3.org/2000/svg">
<path d="M45.2397 34.3528V34.2071C38.6186 33.5809 33.2745 28.4979 32.8997 21.4341H32.8442C32.4 27.8425 26.7922 33.4352 20.7263 34.1926V34.3819C26.82 35.1393 32.4 40.7757 32.8442 47.1404H32.8997C33.3022 40.3533 38.6324 35.0228 45.2397 34.3528Z" stroke="#0A0027" stroke-miterlimit="10"/>
<path d="M16.7682 17.4579C16.671 8.38423 9.67516 1.07287 1.02747 1.00005C1.95747 9.24353 8.85619 16.8462 16.7682 17.4579Z" stroke="#0A0027" stroke-miterlimit="10"/>
<path d="M1 34.28C9.71709 34.2363 16.7685 26.7939 16.7685 17.6474V17.5309C8.0514 18.0406 1.77732 25.2937 1 34.2946V34.28Z" stroke="#0A0027" stroke-miterlimit="10"/>
<path d="M16.7682 50.7372C16.671 41.6635 9.67516 34.3522 1.02747 34.2793C1.95747 42.5228 8.85619 50.1255 16.7682 50.7372Z" stroke="#0A0027" stroke-miterlimit="10"/>
<path d="M1 67.5742C9.71709 67.5305 16.7685 60.0881 16.7685 50.9416V50.8251C8.0514 51.3203 1.77732 58.5734 1 67.5742Z" stroke="#0A0027" stroke-miterlimit="10"/>
<path d="M48.7235 17.4579C48.6264 8.38423 41.6305 1.07287 32.9828 1.00005C33.9128 9.24353 40.8115 16.8462 48.7235 17.4579Z" stroke="#0A0027" stroke-miterlimit="10"/>
<path d="M17.007 17.4579C24.8634 16.8462 31.8177 9.27266 32.7616 1.00005C24.1139 1.07287 17.1041 8.38423 17.007 17.4579Z" stroke="#0A0027" stroke-miterlimit="10"/>
<path d="M32.9553 67.5743C41.6724 67.5306 48.7238 60.0882 48.7238 50.9417V50.8252C40.0067 51.3349 33.7326 58.588 32.9553 67.5889V67.5743Z" stroke="#0A0027" stroke-miterlimit="10"/>
<path d="M17.007 50.8105V50.927C17.007 60.0881 24.0722 67.5305 32.7893 67.5742C31.9565 58.6025 25.377 51.3494 17.007 50.8105Z" stroke="#0A0027" stroke-miterlimit="10"/>
<path d="M48.7227 17.4579C56.5791 16.8462 63.5334 9.27266 64.4773 1.00005C55.8296 1.07287 48.8198 8.38423 48.7227 17.4579Z" stroke="#0A0027" stroke-miterlimit="10"/>
<path d="M64.4773 34.2797H64.505C63.6722 25.308 57.0927 18.0549 48.7227 17.516V17.6325C48.7227 26.7644 55.7602 34.2068 64.4773 34.2651V34.2797Z" stroke="#0A0027" stroke-miterlimit="10"/>
<path d="M48.7227 50.7372C56.5791 50.1255 63.5334 42.552 64.4773 34.2793C55.8296 34.3522 48.8198 41.6635 48.7227 50.7372Z" stroke="#0A0027" stroke-miterlimit="10"/>
<path d="M48.7227 50.8109V50.9274C48.7227 60.0739 55.7879 67.5164 64.505 67.5601C63.6722 58.5884 57.0927 51.3353 48.7227 50.7964V50.8109Z" stroke="#0A0027" stroke-miterlimit="10"/>
</svg>
