<svg width="59" height="75" viewBox="0 0 59 75" fill="none" xmlns="http://www.w3.org/2000/svg">
<g clip-path="url(#clip0_1_865)">
<path d="M40.4574 33.7244V37.5162C40.4574 37.677 40.1822 37.7727 39.9156 37.7727C39.649 37.7727 39.3738 37.677 39.3738 37.5162C39.3738 37.2533 39.3586 36.8709 39.3413 36.4276C39.3023 35.4432 39.2503 34.096 39.363 33.6723C39.4193 33.568 39.6945 33.3441 39.8137 33.3137L40.4574 33.7244Z" fill="white"/>
<path d="M58.8743 74.0896C58.7941 73.9701 58.6901 73.9136 58.5536 73.9136H47.1757V23.2204C46.7748 22.3251 46.0336 21.3234 45.3141 20.3542C44.4364 19.17 43.5305 17.9466 43.1729 16.834C42.3234 14.1917 41.3438 8.79188 40.9233 6.00831C40.8692 5.64542 40.8172 4.95659 40.7543 4.15911C40.6524 2.82708 40.4791 0.595443 40.2623 0.282535C40.1453 0.115217 40.0044 0.017433 39.8549 0.00222225C39.7075 -0.0129885 39.5537 0.0500276 39.4085 0.186925C39.2047 0.49114 38.9078 3.59414 38.7323 5.44985C38.6174 6.66454 38.5156 7.71409 38.4397 8.1552C38.2447 9.28732 37.9456 10.4129 37.6552 11.5037C37.4428 12.299 37.2239 13.1226 37.0484 13.9396C36.9682 14.309 36.9335 14.7632 36.901 15.2043C36.8555 15.7801 36.81 16.3755 36.6648 16.8384C36.3722 17.7706 35.4533 18.957 34.4781 20.213C33.6567 21.2734 32.8072 22.3686 32.4387 23.2182V42.1882H21.8303L21.7652 42.1143C21.3708 41.6689 20.7662 40.5368 20.0683 39.2265C19.1733 37.5511 17.8231 35.0196 17.2423 34.8914C17.1231 34.8653 17.0732 34.8892 16.9215 34.9783L6.96973 52.3403L6.87438 52.3599C6.70967 52.3947 6.4171 52.3925 6.04867 52.3903C5.41368 52.3838 4.34958 52.3773 4.08735 52.638C4.05267 52.6728 4.04834 52.701 4.04834 52.7271V73.9136H0.25573C0.095357 73.9136 0 74.1895 0 74.4568C0 74.7241 0.095357 75 0.25573 75H58.7703C58.9198 75 59 74.7654 59 74.5459C59 74.3742 58.9545 74.2069 58.8743 74.0896ZM39.8094 6.16693L41.3763 13.505H38.2403L39.8094 6.16693ZM38.08 14.7762L38.1493 14.7263C38.4896 14.4829 40.802 14.5416 41.3958 14.648C41.5627 14.6785 41.6797 14.7154 41.7447 14.811L41.7707 14.8479L42.2388 17.1991H37.5924L38.08 14.7762ZM34.1747 22.2904L34.179 22.2317L36.8403 18.4486L36.8793 18.4268C37.3214 18.1574 42.384 18.1574 42.8673 18.555C43.0992 18.7484 45.3531 22.0557 45.4225 22.2252C45.4615 22.3186 45.5763 22.6033 45.3921 22.7662C45.1862 22.9466 44.8633 22.7619 44.6488 22.6402C44.6423 22.638 44.6379 22.6337 44.6314 22.6315C43.563 22.6315 42.4534 22.6141 41.3806 22.5967C39.1917 22.5642 36.927 22.5316 34.7836 22.6272C34.775 22.638 34.7641 22.6489 34.7533 22.6619C34.6861 22.7358 34.5799 22.8532 34.4434 22.8532C34.4131 22.8532 34.3784 22.8466 34.3437 22.8314C34.1552 22.7489 34.1573 22.5185 34.1747 22.2904ZM31.8579 43.2747L25.9978 49.5111L24.6238 46.8775L27.569 43.2747H31.8579ZM26.4074 43.2747L24.0712 46.0235L22.2875 43.2747H26.4074ZM17.1599 36.5516L19.4463 40.3955L17.1599 43.4116L14.8735 40.3955L17.1599 36.5516ZM12.5676 44.4698C13.2438 43.4442 13.946 42.386 14.141 41.8927L14.2689 41.5755L17.2661 44.8067C17.7429 44.761 18.3151 43.8766 18.781 43.1595C19.1516 42.5859 19.5027 42.0448 19.8516 41.7971L20.0445 41.6624L23.6529 47.7706C23.7201 47.964 23.3408 48.8093 23.2433 48.881C23.1609 48.9396 23.0786 48.9679 22.9919 48.9679C22.5671 48.9679 22.0817 48.3247 21.5724 47.6489C21.3535 47.3577 21.0782 46.9948 20.9655 46.9275C20.0813 46.4147 19.442 47.0296 18.5665 48.027C18.2154 48.4268 17.8513 48.8397 17.4633 49.0896L17.4265 49.1135L17.3832 49.1222C17.3571 49.1265 17.3311 49.1287 17.3051 49.1287C16.8565 49.1287 16.3602 48.4833 15.6689 47.5163C15.3937 47.1296 15.1076 46.7297 14.9516 46.6124C14.1909 46.0366 13.3543 46.8514 12.3401 47.9748C12.0172 48.3334 11.7116 48.6745 11.4385 48.8766L11.2825 48.994L11.1503 48.8505C11.1069 48.8049 11.0527 48.7593 11.0007 48.7136C10.8144 48.5528 10.5586 48.3312 10.5868 47.9683C10.628 47.4425 11.3973 46.2408 12.5676 44.4698ZM9.5097 49.4438L9.54004 49.4155C9.6679 49.2982 9.7936 49.2851 9.87596 49.296C10.1122 49.3264 10.2617 49.5589 10.4373 49.8284C10.6822 50.2087 10.8815 50.4781 11.1589 50.439L14.141 47.5229L14.4748 47.9183C15.7382 49.4112 16.5011 50.313 17.2748 50.3173H17.2791C17.9315 50.3173 18.7117 49.7067 20.0597 48.1443L20.1463 48.0444L20.2764 48.077C20.8008 48.2074 21.2213 48.7506 21.6677 49.3243C22.3547 50.2108 22.8185 50.728 23.408 50.3934L24.4439 48.9505L26.3012 52.4012H8.03166L9.5097 49.4438ZM27.2374 73.9136H4.91522V53.4877H27.2374V73.9136ZM26.6393 50.4042L26.7411 50.2977C27.7034 49.3025 28.6548 48.2638 29.5737 47.2599C30.5619 46.18 31.5827 45.0652 32.6229 43.9961C32.753 43.8614 32.8093 43.6572 32.8418 43.5355C32.8678 43.4377 32.9112 43.2747 33.0889 43.2747H36.6106L27.8313 53.0074L26.6393 50.4042ZM41.6624 56.1582C41.606 56.3647 39.2243 59.1374 38.832 59.1374H34.9787L40.854 52.751L40.8887 53.2552C40.9103 53.6007 41.0881 53.9853 41.2766 54.3938C41.5453 54.9805 41.8249 55.5867 41.6624 56.1582ZM42.2648 57.3599C42.371 57.349 42.4729 57.3838 42.5509 57.4577L42.5921 57.4946L43.1426 59.1352H40.5072L40.9689 58.7506C41.0317 58.6984 41.1704 58.4985 41.2939 58.3247C41.684 57.7641 41.9636 57.3925 42.2648 57.3599ZM39.8983 52.0513L39.8614 52.1057L33.5093 59.1374H29.5694L38.9382 48.6941L39.04 49.0831C39.1051 49.3351 39.2633 49.6502 39.4323 49.9827C39.7812 50.6737 40.1757 51.4581 39.8983 52.0513ZM28.1043 58.8288V54.1635L36.706 44.5502L37.3886 44.7458L38.327 47.5555L28.1043 58.8288ZM43.719 73.9136H28.1043V60.2239H43.719V73.9136ZM46.0921 73.9136H44.5751V59.5176C43.1751 56.9644 42.1175 53.9614 41.0924 51.0539C40.141 48.3529 39.1571 45.5607 37.9218 43.2269C37.8828 43.1552 37.8459 43.0813 37.8091 43.0096C37.653 42.6967 37.5035 42.4012 37.2413 42.1882H33.5223V37.299C33.5223 37.0383 34.1443 36.1104 36.5456 32.7836C37.1697 31.9188 37.7094 31.1713 37.8958 30.8823C38.4441 30.037 38.9859 29.1265 39.5082 28.1769L39.6794 27.864L46.0921 37.449V73.9136ZM46.0921 35.4998L39.8332 26.3625L39.2914 26.5972L33.5223 35.3021V23.718H46.0921V35.4998Z" fill="white"/>
<path d="M13.972 61.0757C13.8636 60.5346 13.5277 60.0587 13.0293 59.7371C12.4766 59.3786 11.8048 59.2526 11.185 59.3938C10.4156 59.5698 9.65493 60.6737 9.51623 61.5059C9.32335 62.6511 9.28217 68.3377 9.50756 69.3656C9.57691 69.6741 9.86082 70.1109 10.1122 70.1869C10.8079 70.3955 13.7379 70.3064 13.933 69.9066C14.0999 69.409 14.1367 61.8927 13.972 61.0757ZM10.55 69.133L10.5587 61.1409C10.6909 60.6867 11.1741 60.3673 11.7333 60.3651C12.2881 60.3695 12.728 60.6737 12.8819 61.18C13.1615 62.0905 13.0661 63.3877 12.9664 64.761C12.8581 66.2582 12.7475 67.8075 13.1355 68.8353L13.2482 69.1309H10.55V69.133Z" fill="white"/>
<path d="M23.3257 61.4646C23.2216 60.7866 22.8099 60.1435 22.2247 59.7458C21.6981 59.3851 21.0869 59.2612 20.5061 59.3938C19.7346 59.5698 18.9739 60.6737 18.8352 61.5059C18.6185 62.7988 18.5925 67.9009 18.7962 69.1939C18.9241 70.0087 19.9383 70.3151 20.8442 70.3282C21.9343 70.3455 23.2 69.9153 23.3343 69.196C23.5315 68.1443 23.4925 62.5576 23.3257 61.4646ZM22.2529 69.133H19.869V61.2017C19.869 60.6954 20.4671 60.4672 21.0609 60.4672C21.6547 60.4672 22.2529 60.6954 22.2529 61.2017V69.133Z" fill="white"/>
<path d="M38.262 63.7614C38.2338 63.7571 38.1905 63.7527 38.1406 63.7527C37.9694 63.7527 37.7115 63.8027 37.6313 64.0852C37.5793 64.2721 37.562 64.6567 37.562 65.1152C37.562 65.6606 37.5858 66.3103 37.6075 66.8514C37.6248 67.2947 37.64 67.6771 37.64 67.9378C37.64 68.0378 38.0149 68.2508 38.4332 68.2508C38.5416 68.2508 38.6326 68.2334 38.6868 68.2051C38.7236 68.1834 38.7236 68.1704 38.7236 68.1551V64.0265C38.7236 63.9461 38.5394 63.8005 38.262 63.7614ZM33.0846 63.7332L32.4387 64.146V68.1551C32.4387 68.3159 32.714 68.4116 32.9805 68.4116C33.2471 68.4116 33.5223 68.3159 33.5223 68.1551V64.0808C33.4378 63.9722 33.1951 63.7657 33.0846 63.7332Z" fill="white"/>
<path d="M33.5223 64.0808V68.1551C33.5223 68.3159 33.2471 68.4116 32.9805 68.4116C32.714 68.4116 32.4387 68.3159 32.4387 68.1551V64.146L33.0846 63.7332C33.1951 63.7657 33.4378 63.9722 33.5223 64.0808Z" fill="white"/>
<path d="M38.7236 64.0265V68.1551C38.7236 68.1703 38.7236 68.1834 38.6868 68.2051C38.6326 68.2333 38.5416 68.2507 38.4332 68.2507C38.015 68.2507 37.64 68.0378 37.64 67.9378C37.64 67.6771 37.6249 67.2946 37.6075 66.8513C37.5858 66.3103 37.562 65.6605 37.562 65.1151C37.562 64.6566 37.5793 64.272 37.6314 64.0851C37.7115 63.8027 37.9694 63.7527 38.1407 63.7527C38.1905 63.7527 38.2338 63.757 38.262 63.7614C38.5394 63.8005 38.7236 63.9461 38.7236 64.0265Z" fill="white"/>
</g>
<defs>
<clipPath id="clip0_1_865">
<rect width="59" height="75" fill="white"/>
</clipPath>
</defs>
</svg>
