<svg width="71" height="70" viewBox="0 0 71 70" fill="none" xmlns="http://www.w3.org/2000/svg">
<g clip-path="url(#clip0_1_760)">
<path d="M70.5639 69.789H0.436107C0.195376 69.789 0 69.6015 0 69.3704C0 69.1393 0.195376 68.9518 0.436107 68.9518H70.5639C70.8046 68.9518 71 69.1393 71 69.3704C71 69.6015 70.8046 69.789 70.5639 69.789Z" fill="white"/>
<path d="M46.0355 69.789C46.0093 69.789 45.9832 69.7873 45.957 69.7823C45.7198 69.7404 45.5628 69.5227 45.6064 69.295L54.8815 20.0966C55.0019 19.457 54.5605 18.8341 53.8959 18.7085L26.8346 13.5947C26.5031 13.5311 26.1664 13.5981 25.8873 13.7823C25.6082 13.9665 25.4233 14.2444 25.3658 14.5642L15.4539 69.4407C15.412 69.6684 15.187 69.8208 14.9498 69.7823C14.7125 69.7421 14.5538 69.5261 14.5939 69.2984L24.5058 14.4219C24.6034 13.8777 24.9192 13.4055 25.3937 13.0941C25.8682 12.781 26.4403 12.6671 27.0038 12.7743L54.0651 17.888C55.1937 18.1007 55.9456 19.1589 55.7415 20.2456L46.4664 69.444C46.428 69.6467 46.2448 69.789 46.0372 69.789H46.0355Z" fill="white"/>
<path d="M29.6465 13.5731C29.6239 13.5731 29.6012 13.5731 29.5785 13.568C29.3413 13.5329 29.1773 13.3185 29.2139 13.0908L30.6252 4.38205C30.6426 4.27153 30.7054 4.17274 30.7996 4.10744C30.8938 4.04213 31.0107 4.01534 31.1258 4.03376L36.3696 4.86261C36.6068 4.89945 36.769 5.11545 36.7289 5.34317C36.6905 5.5709 36.4655 5.72495 36.2283 5.68811L31.4189 4.92791L30.0739 13.2197C30.0408 13.4257 29.8541 13.5747 29.643 13.5747L29.6465 13.5731Z" fill="white"/>
<path d="M51.7258 17.8914C51.7031 17.8914 51.6787 17.8897 51.656 17.8863C51.4188 17.8495 51.2565 17.6335 51.2949 17.4058L52.8911 7.98536L47.2095 7.04935C46.9722 7.01083 46.8135 6.79316 46.8536 6.56543C46.8937 6.33771 47.1205 6.18534 47.3578 6.22385L53.465 7.23019C53.7005 7.2687 53.8592 7.48303 53.8209 7.71075L52.1549 17.5397C52.12 17.7457 51.9351 17.8914 51.7258 17.8914Z" fill="white"/>
<path d="M32.9749 5.16734C32.9523 5.16734 32.9278 5.16566 32.9034 5.16231C32.6662 5.12548 32.5039 4.90947 32.5441 4.68175L33.2802 0.351646C33.2994 0.241133 33.3622 0.144015 33.4564 0.0787122C33.5506 0.013409 33.6675 -0.0117076 33.7826 0.0050368L40.1358 1.01138C40.3731 1.04989 40.5335 1.26422 40.4952 1.49194C40.4568 1.71966 40.2318 1.87371 39.9945 1.83688L34.0722 0.899188L33.4058 4.81403C33.3709 5.01999 33.186 5.16566 32.9767 5.16566L32.9749 5.16734Z" fill="white"/>
<path d="M49.1929 7.36924C49.1667 7.36924 49.1405 7.36756 49.1144 7.36254C48.8771 7.32068 48.7201 7.103 48.7637 6.87528L49.397 3.52807L42.7001 2.30908C42.4629 2.26554 42.3076 2.04619 42.353 1.82014C42.3983 1.59242 42.6268 1.44339 42.8623 1.48693L49.9848 2.78294C50.2203 2.82648 50.3756 3.04248 50.332 3.26853L49.622 7.0243C49.5836 7.22691 49.4005 7.36756 49.1929 7.36756V7.36924Z" fill="white"/>
<path d="M44.2143 16.6707C44.1899 16.6707 44.1655 16.669 44.141 16.6657C43.9038 16.6272 43.7433 16.4112 43.7834 16.1835L44.4864 12.1497C44.5981 11.5118 44.4428 10.8704 44.0521 10.3447C43.6613 9.8189 43.0804 9.47062 42.4158 9.36345L41.1302 9.1575C40.4655 9.05033 39.7974 9.19936 39.2497 9.57443C38.7019 9.94951 38.3391 10.5071 38.2274 11.1451L37.5244 15.1788C37.4843 15.4065 37.2593 15.5606 37.022 15.522C36.7848 15.4835 36.6243 15.2675 36.6644 15.0398L37.3674 11.0061C37.5174 10.1488 38.0059 9.39694 38.7438 8.89126C39.4817 8.38558 40.38 8.18632 41.2749 8.33032L42.5606 8.53628C43.4537 8.68028 44.237 9.14912 44.7638 9.85741C45.2906 10.5657 45.4982 11.428 45.3482 12.287L44.6452 16.3208C44.6103 16.525 44.4254 16.6707 44.216 16.6707H44.2143Z" fill="white"/>
<path d="M20.1167 69.7891C20.0888 69.7891 20.0592 69.7857 20.0313 69.7807C19.7958 69.7355 19.6422 69.5145 19.6893 69.2884L21.1337 62.3311C21.4408 60.5729 23.1922 59.3724 25.0378 59.6687L26.3234 59.8747C27.2166 60.0187 27.9998 60.4875 28.5266 61.1958C29.0534 61.9041 29.261 62.7665 29.111 63.6254L28.2091 69.0724C28.1708 69.3001 27.9492 69.4575 27.7102 69.4207C27.473 69.3838 27.3108 69.1695 27.3474 68.9418L28.2493 63.4915C28.3609 62.8502 28.2074 62.2089 27.8166 61.6831C27.4259 61.1573 26.845 60.809 26.1804 60.7019L24.8947 60.4959C23.5236 60.2749 22.2223 61.1674 21.992 62.4835L20.5459 69.4525C20.504 69.6518 20.3226 69.7891 20.1185 69.7891H20.1167Z" fill="white"/>
<path d="M40.2631 70C40.2405 70 40.2178 69.9983 40.1934 69.995C39.9561 69.9581 39.7939 69.7438 39.8305 69.5161L40.3486 66.3815C40.4603 65.7402 40.3068 65.0989 39.916 64.5731C39.5253 64.0474 38.9444 63.6991 38.2797 63.5919L36.9941 63.386C35.623 63.1649 34.3199 64.0574 34.0914 65.3735L33.4041 69.4391C33.3657 69.6668 33.1424 69.8225 32.9034 69.7857C32.6662 69.7488 32.5039 69.5328 32.5423 69.3051L33.2296 65.2379C33.5384 63.4646 35.2933 62.2641 37.1371 62.5605L38.4228 62.7664C39.3159 62.9104 40.0992 63.3793 40.626 64.0875C41.1528 64.7958 41.3604 65.6582 41.2104 66.5172L40.6923 69.6484C40.6574 69.8543 40.4725 70.0017 40.2614 70.0017L40.2631 70Z" fill="white"/>
<path d="M49.7057 50.3236C49.6813 50.3236 49.6552 50.3219 49.6307 50.3169L19.3841 45.2316C19.1468 45.1914 18.9881 44.9754 19.03 44.7477C19.0718 44.52 19.2969 44.3676 19.5341 44.4078L49.7807 49.4931C50.018 49.5333 50.1767 49.7493 50.1349 49.977C50.0982 50.1796 49.9133 50.3236 49.7057 50.3236Z" fill="white"/>
<path d="M47.2828 60.4623C47.2583 60.4623 47.2357 60.4607 47.2112 60.4573L17.4897 55.7304C17.2524 55.6918 17.0919 55.4775 17.1303 55.2481C17.1687 55.0187 17.3955 54.8664 17.6327 54.9032L47.3543 59.6301C47.5915 59.6686 47.752 59.883 47.7136 60.1124C47.6787 60.3167 47.4938 60.4623 47.2845 60.4623H47.2828Z" fill="white"/>
<path d="M23.6335 56.7016C23.6091 56.7016 23.5847 56.6999 23.5602 56.6949C23.323 56.6564 23.1625 56.4404 23.2026 56.2126L24.3191 49.8347C24.3592 49.607 24.5842 49.4512 24.8214 49.4914C25.0587 49.5299 25.2192 49.7459 25.1791 49.9737L24.0626 56.3516C24.026 56.5559 23.8428 56.7016 23.6335 56.7016Z" fill="white"/>
<path d="M29.6465 57.6577C29.6186 57.6577 29.589 57.6544 29.5593 57.6494C29.3238 57.6042 29.1703 57.3831 29.2174 57.1554L30.4647 51.2245C30.5118 50.9985 30.742 50.8511 30.9793 50.8963C31.2148 50.9415 31.3683 51.1626 31.3212 51.3903L30.0739 57.3212C30.0321 57.5204 29.8506 57.6577 29.6465 57.6577Z" fill="white"/>
<path d="M35.841 58.6422C35.8166 58.6422 35.7905 58.6405 35.766 58.6355C35.5288 58.5953 35.37 58.3793 35.4119 58.1516L36.469 52.348C36.5109 52.1203 36.7359 51.9662 36.9732 52.0081C37.2104 52.0483 37.3692 52.2643 37.3273 52.492L36.2702 58.2956C36.2335 58.4982 36.0486 58.6422 35.841 58.6422Z" fill="white"/>
<path d="M41.7634 59.585C41.7407 59.585 41.7163 59.5833 41.6936 59.58C41.4564 59.5432 41.2941 59.3288 41.3325 59.1011L42.3495 53.0279C42.3879 52.8002 42.6112 52.6445 42.8484 52.6813C43.0857 52.7181 43.2479 52.9325 43.2095 53.1602L42.1925 59.2334C42.1576 59.4393 41.9727 59.585 41.7617 59.585H41.7634Z" fill="white"/>
<path d="M25.6065 46.0504C25.582 46.0504 25.5559 46.0487 25.5297 46.0437C25.2925 46.0035 25.1337 45.7858 25.1756 45.5581L26.1891 40.0341C26.231 39.8064 26.4577 39.6557 26.695 39.6942C26.9322 39.7344 27.091 39.9521 27.0491 40.1798L26.0356 45.7038C25.999 45.9064 25.814 46.0504 25.6065 46.0504Z" fill="white"/>
<path d="M31.6213 47.0066C31.5969 47.0066 31.5707 47.005 31.5445 46.9999C31.3073 46.9598 31.1485 46.7421 31.1904 46.5144L32.2004 40.9987C32.2423 40.771 32.4673 40.6203 32.7063 40.6588C32.9436 40.699 33.1023 40.9167 33.0604 41.1444L32.0504 46.66C32.0138 46.8626 31.8289 47.0066 31.6213 47.0066Z" fill="white"/>
<path d="M37.814 47.9928C37.7826 47.9928 37.7529 47.9895 37.7215 47.9828C37.486 47.9342 37.336 47.7115 37.3883 47.4855L38.5746 42.2428C38.6251 42.0167 38.8572 41.8727 39.0927 41.923C39.3282 41.9715 39.4782 42.1942 39.4258 42.4203L38.2396 47.6629C38.196 47.8589 38.0146 47.9928 37.814 47.9928Z" fill="white"/>
<path d="M43.7381 48.9339C43.7154 48.9339 43.6927 48.9322 43.6701 48.9288C43.4328 48.892 43.2688 48.6777 43.3072 48.45L44.1829 43.1202C44.2195 42.8925 44.4428 42.7368 44.6818 42.7719C44.9191 42.8088 45.083 43.0231 45.0447 43.2508L44.169 48.5806C44.1358 48.7865 43.9492 48.9339 43.7381 48.9339Z" fill="white"/>
<path d="M51.649 39.8433C51.6246 39.8433 51.6002 39.8417 51.574 39.8366L21.6082 34.887C21.371 34.8485 21.2122 34.6308 21.2524 34.4031C21.2925 34.1754 21.5193 34.023 21.7565 34.0615L51.7223 39.0111C51.9595 39.0497 52.1183 39.2673 52.0782 39.4951C52.0415 39.6993 51.8566 39.8433 51.649 39.8433Z" fill="white"/>
<path d="M27.8341 35.7058C27.8097 35.7058 27.7835 35.7041 27.7574 35.6991C27.5201 35.6589 27.3614 35.4412 27.4032 35.2135L28.4168 29.6895C28.4586 29.4618 28.6854 29.3111 28.9226 29.3496C29.1599 29.3898 29.3186 29.6075 29.2768 29.8352L28.2632 35.3592C28.2266 35.5618 28.0417 35.7058 27.8341 35.7058Z" fill="white"/>
<path d="M33.8472 36.6619C33.8228 36.6619 33.7966 36.6602 33.7704 36.6552C33.5332 36.615 33.3744 36.3974 33.4163 36.1696L34.4263 30.654C34.4682 30.4263 34.695 30.2756 34.9322 30.3141C35.1695 30.3543 35.3282 30.572 35.2863 30.7997L34.2763 36.3153C34.2397 36.5179 34.0548 36.6619 33.8472 36.6619Z" fill="white"/>
<path d="M40.0416 37.6465C40.0102 37.6465 39.9806 37.6432 39.9492 37.6365C39.7137 37.5879 39.5637 37.3652 39.616 37.1391L40.8022 31.8965C40.8528 31.6704 41.0848 31.5264 41.3203 31.5767C41.5558 31.6252 41.7058 31.8479 41.6535 32.074L40.4673 37.3166C40.4237 37.5125 40.2423 37.6465 40.0416 37.6465Z" fill="white"/>
<path d="M45.964 38.5891C45.9413 38.5891 45.9186 38.5875 45.8959 38.5841C45.6587 38.5473 45.4947 38.333 45.5331 38.1052L46.4088 32.7755C46.4472 32.5478 46.6687 32.392 46.9077 32.4272C47.145 32.464 47.3089 32.6784 47.2706 32.9061L46.3948 38.2358C46.3617 38.4418 46.1751 38.5891 45.964 38.5891Z" fill="white"/>
<path d="M53.5208 28.9845C53.4946 28.9845 53.4685 28.9829 53.4423 28.9778L23.8341 23.8574C23.5969 23.8155 23.4399 23.5995 23.4817 23.3718C23.5236 23.1441 23.7504 22.9934 23.9876 23.0336L53.5958 28.154C53.833 28.1959 53.99 28.4119 53.9482 28.6396C53.9098 28.8422 53.7266 28.9845 53.5191 28.9845H53.5208Z" fill="white"/>
<path d="M30.06 24.6763C30.0356 24.6763 30.0094 24.6746 29.9833 24.6696C29.746 24.6294 29.5873 24.4117 29.6291 24.184L30.6426 18.66C30.6845 18.4323 30.9113 18.2816 31.1485 18.3201C31.3858 18.3603 31.5445 18.578 31.5027 18.8057L30.4891 24.3297C30.4525 24.5323 30.2676 24.6763 30.06 24.6763Z" fill="white"/>
<path d="M36.0748 25.6324C36.0504 25.6324 36.0242 25.6307 35.998 25.6257C35.7608 25.5855 35.602 25.3678 35.6439 25.1401L36.6539 19.6245C36.6958 19.3968 36.9208 19.2461 37.1598 19.2846C37.3971 19.3248 37.5558 19.5424 37.5139 19.7702L36.5039 25.2858C36.4673 25.4884 36.2824 25.6324 36.0748 25.6324Z" fill="white"/>
<path d="M42.2675 26.617C42.2361 26.617 42.2064 26.6136 42.175 26.6069C41.9395 26.5584 41.7895 26.3357 41.8418 26.1096L43.0281 20.8669C43.0786 20.6409 43.3106 20.4969 43.5461 20.5471C43.7816 20.5957 43.9317 20.8184 43.8793 21.0444L42.6931 26.2871C42.6495 26.483 42.4681 26.617 42.2675 26.617Z" fill="white"/>
<path d="M48.1916 27.5596C48.1689 27.5596 48.1462 27.5579 48.1235 27.5546C47.8863 27.5177 47.7223 27.3034 47.7607 27.0757L48.6364 21.7459C48.673 21.5182 48.8981 21.3625 49.1353 21.3977C49.3726 21.4345 49.5365 21.6488 49.4982 21.8765L48.6224 27.2063C48.5893 27.4122 48.4027 27.5596 48.1916 27.5596Z" fill="white"/>
</g>
<defs>
<clipPath id="clip0_1_760">
<rect width="71" height="70" fill="white"/>
</clipPath>
</defs>
</svg>
