<svg width="78" height="73" viewBox="0 0 78 73" fill="none" xmlns="http://www.w3.org/2000/svg">
<g clip-path="url(#clip0_1_815)">
<path d="M4.94811 35.3019H4.09851V65.7722H4.94811V35.3019Z" fill="white"/>
<path d="M26.8474 36.0109H3.10956C2.94983 36.0109 2.802 35.9205 2.73063 35.7757C2.65927 35.6325 2.67286 35.4587 2.76972 35.3309L9.26915 26.5437C9.34391 26.4432 9.45946 26.3801 9.5835 26.3716C9.70754 26.3648 9.82989 26.4125 9.91654 26.5028L15.7091 32.5973C15.8705 32.7677 15.8654 33.0369 15.6955 33.2006C15.5256 33.3625 15.2571 33.3556 15.0957 33.1869L9.64977 27.4589L3.95406 35.1587H26.8491C27.0835 35.1587 27.2739 35.3496 27.2739 35.5848C27.2739 35.82 27.0835 36.0109 26.8491 36.0109H26.8474Z" fill="white"/>
<path d="M16.1101 65.6325L15.2605 65.6291L15.4032 29.4904H25.8584V30.3425H16.2494L16.1101 65.6325Z" fill="white"/>
<path d="M22.0454 29.6336H21.1958V15.8854H40.5548V16.7375H22.0454V29.6336Z" fill="white"/>
<path d="M29.9371 7.22837L21.3181 16.016L21.9238 16.6136L30.5428 7.82596L29.9371 7.22837Z" fill="white"/>
<path d="M9.89269 21.9797H9.04309V26.7977H9.89269V21.9797Z" fill="white"/>
<path d="M32.3595 0H31.5099V6.95847H32.3595V0Z" fill="white"/>
<path d="M25.9994 35.8695C25.7649 35.8695 25.5746 35.6786 25.5746 35.4434V16.3115C25.5746 16.2467 25.5899 16.1836 25.6171 16.1257L29.8566 7.33857C29.9279 7.192 30.0758 7.09827 30.2389 7.09827H33.6305C33.7528 7.09827 33.8684 7.1511 33.9482 7.24142L41.5793 15.8871C41.6473 15.9655 41.6864 16.066 41.6864 16.17V21.2725C41.6864 21.3748 41.6507 21.4736 41.5844 21.5503L33.5676 30.9084H39.0017C39.2361 30.9084 39.4265 31.0993 39.4265 31.3345C39.4265 31.5696 39.2361 31.7605 39.0017 31.7605H32.6433C32.4767 31.7605 32.3272 31.6634 32.2575 31.5117C32.1879 31.36 32.2134 31.1828 32.3221 31.0567L40.8385 21.114V16.3319L33.4419 7.9521H30.5091L26.4293 16.4103V35.4451C26.4293 35.6803 26.239 35.8712 26.0045 35.8712L25.9994 35.8695Z" fill="white"/>
<path d="M61.7505 67.047H60.9009V42.3098L52.0056 35.2303L51.8629 31.4912L44.0245 21.6969H41.2599V20.8447H44.4323L52.7006 31.1776L52.8399 34.806L61.7505 41.8991V67.047Z" fill="white"/>
<path d="M71.0758 38.9883H60.4779C60.3114 38.9883 60.1601 38.8911 60.0922 38.7394L54.5477 26.5319L51.3056 29.6575C51.1357 29.8211 50.8672 29.816 50.7041 29.6455C50.541 29.4751 50.5461 29.2059 50.716 29.0439L54.3829 25.5076C54.4152 25.4752 54.4508 25.448 54.4933 25.4275C54.5018 25.4241 54.5103 25.419 54.5188 25.4156C54.6106 25.3764 54.7091 25.373 54.7992 25.3968L63.1337 27.6635C63.2238 27.6874 63.302 27.7419 63.3597 27.8152L71.4139 38.3032C71.5125 38.431 71.5295 38.6048 71.4581 38.7514C71.3868 38.8979 71.2389 38.99 71.0775 38.99L71.0758 38.9883ZM60.7515 38.1361H70.2126L62.7735 28.4492L55.4466 26.4569L60.7515 38.1378V38.1361Z" fill="white"/>
<path d="M74.0426 70.1658H41.6847C41.5794 70.1658 41.4791 70.1266 41.401 70.0567C36.2473 65.4314 21.3453 65.1945 18.8186 65.3461C16.4618 65.4842 10.7168 66.3261 10.6591 66.3346C10.6404 66.338 10.6217 66.338 10.603 66.3397L0.99402 66.4812C0.764628 66.4778 0.565822 66.2971 0.562424 66.0619C0.559025 65.8267 0.745937 65.6325 0.980426 65.629L10.5605 65.4876C11.0465 65.416 16.4312 64.6338 18.7659 64.4957C21.4796 64.3355 36.3034 64.5383 41.841 69.3136H73.1199L70.4657 66.1897C70.3995 66.1131 70.3638 66.0142 70.3638 65.9137V39.4125C70.3638 39.1773 70.5541 38.9865 70.7886 38.9865C71.0231 38.9865 71.2134 39.1773 71.2134 39.4125V65.7569L74.362 69.4636C74.4691 69.5897 74.4928 69.767 74.4249 69.9187C74.3552 70.0703 74.2057 70.1658 74.0392 70.1658H74.0426Z" fill="white"/>
<path d="M12.5775 41.5395H6.64221C6.40772 41.5395 6.21741 41.3486 6.21741 41.1134C6.21741 40.8783 6.40772 40.6874 6.64221 40.6874H12.5775C12.812 40.6874 13.0023 40.8783 13.0023 41.1134C13.0023 41.3486 12.812 41.5395 12.5775 41.5395Z" fill="white"/>
<path d="M12.5775 45.3656H7.208C6.97351 45.3656 6.7832 45.1747 6.7832 44.9395C6.7832 44.7043 6.97351 44.5134 7.208 44.5134H12.5775C12.812 44.5134 13.0023 44.7043 13.0023 44.9395C13.0023 45.1747 12.812 45.3656 12.5775 45.3656Z" fill="white"/>
<path d="M12.4348 49.0501H7.49011C7.25562 49.0501 7.06531 48.8592 7.06531 48.6241C7.06531 48.3889 7.25562 48.198 7.49011 48.198H12.4348C12.6693 48.198 12.8596 48.3889 12.8596 48.6241C12.8596 48.8592 12.6693 49.0501 12.4348 49.0501Z" fill="white"/>
<path d="M12.0117 52.7347H7.9132C7.67871 52.7347 7.4884 52.5438 7.4884 52.3086C7.4884 52.0734 7.67871 51.8826 7.9132 51.8826H12.0117C12.2462 51.8826 12.4365 52.0734 12.4365 52.3086C12.4365 52.5438 12.2462 52.7347 12.0117 52.7347Z" fill="white"/>
<path d="M64.5746 46.4988C64.3401 46.4988 64.1498 46.308 64.1498 46.0728V42.1053C64.1498 41.8701 64.3401 41.6792 64.5746 41.6792C64.8091 41.6792 64.9994 41.8701 64.9994 42.1053V46.0728C64.9994 46.308 64.8091 46.4988 64.5746 46.4988Z" fill="white"/>
<path d="M67.5431 46.216C67.3086 46.216 67.1183 46.0251 67.1183 45.7899V41.6792C67.1183 41.4441 67.3086 41.2532 67.5431 41.2532C67.7776 41.2532 67.9679 41.4441 67.9679 41.6792V45.7899C67.9679 46.0251 67.7776 46.216 67.5431 46.216Z" fill="white"/>
<path d="M64.5746 53.4437C64.3401 53.4437 64.1498 53.2528 64.1498 53.0176V49.0501C64.1498 48.8149 64.3401 48.624 64.5746 48.624C64.8091 48.624 64.9994 48.8149 64.9994 49.0501V53.0176C64.9994 53.2528 64.8091 53.4437 64.5746 53.4437Z" fill="white"/>
<path d="M67.5431 53.1591C67.3086 53.1591 67.1183 52.9682 67.1183 52.733V48.6224C67.1183 48.3872 67.3086 48.1963 67.5431 48.1963C67.7776 48.1963 67.9679 48.3872 67.9679 48.6224V52.733C67.9679 52.9682 67.7776 53.1591 67.5431 53.1591Z" fill="white"/>
<path d="M64.5746 60.6714C64.3401 60.6714 64.1498 60.4806 64.1498 60.2454V56.2779C64.1498 56.0427 64.3401 55.8518 64.5746 55.8518C64.8091 55.8518 64.9994 56.0427 64.9994 56.2779V60.2454C64.9994 60.4806 64.8091 60.6714 64.5746 60.6714Z" fill="white"/>
<path d="M67.5431 60.3869C67.3086 60.3869 67.1183 60.196 67.1183 59.9608V55.8501C67.1183 55.6149 67.3086 55.4241 67.5431 55.4241C67.7776 55.4241 67.9679 55.6149 67.9679 55.8501V59.9608C67.9679 60.196 67.7776 60.3869 67.5431 60.3869Z" fill="white"/>
<path d="M19.7838 55.8246C19.5493 55.8246 19.359 55.6337 19.359 55.3985V43.8045C19.359 43.5693 19.5493 43.3784 19.7838 43.3784C20.0183 43.3784 20.2086 43.5693 20.2086 43.8045V55.3985C20.2086 55.6337 20.0183 55.8246 19.7838 55.8246Z" fill="white"/>
<path d="M45.4995 43.9476H38.5752C38.5124 43.9476 38.4495 43.934 38.3917 43.9067L32.261 40.972H19.8909L18.8034 42.954H28.6825C28.917 42.954 29.1073 43.1449 29.1073 43.3801C29.1073 43.6153 28.917 43.8061 28.6825 43.8061H18.0846C17.9351 43.8061 17.7957 43.726 17.7193 43.5965C17.6428 43.467 17.6411 43.3068 17.7125 43.1739L19.2673 40.3397C19.342 40.2033 19.4847 40.1198 19.6394 40.1198H32.3562C32.419 40.1198 32.4819 40.1335 32.5397 40.1607L38.6704 43.0955H45.0424L44.9404 41.6741L38.356 31.135C38.2728 31.0021 38.2694 30.8351 38.3458 30.6987C38.424 30.5624 38.5633 30.4789 38.7248 30.484L51.0185 30.7669C51.253 30.772 51.4382 30.968 51.4331 31.2032C51.428 31.4384 51.2394 31.6292 50.9981 31.619L39.4928 31.3532L45.7153 41.3111C45.7527 41.3708 45.7747 41.4372 45.7798 41.5071L45.9209 43.4909C45.9294 43.6084 45.8886 43.7243 45.8087 43.8113C45.7289 43.8982 45.615 43.9476 45.4978 43.9476H45.4995Z" fill="white"/>
<path d="M38.8589 38.845C38.6278 38.845 38.4392 38.6592 38.4341 38.4275L38.2931 30.9168C38.2931 30.8793 38.2965 30.8401 38.3067 30.8043L40.5683 21.8758C40.6261 21.6474 40.8572 21.5093 41.0849 21.5673C41.3126 21.6252 41.4502 21.857 41.3924 22.0854L39.1461 30.9577L39.2871 38.4121C39.2922 38.6473 39.1053 38.8416 38.8708 38.8467H38.8623L38.8589 38.845Z" fill="white"/>
<path d="M34.6195 38.845C34.385 38.845 34.1947 38.6541 34.1947 38.419V31.9002C34.1947 31.665 34.385 31.4741 34.6195 31.4741C34.854 31.4741 35.0443 31.665 35.0443 31.9002V38.419C35.0443 38.6541 34.854 38.845 34.6195 38.845Z" fill="white"/>
<path d="M32.7827 40.972C32.5482 40.972 32.3579 40.7811 32.3579 40.5459V37.3811L30.6757 33.7817L29.5338 36.3841V39.8369C29.5338 40.0721 29.3435 40.263 29.109 40.263C28.8745 40.263 28.6842 40.0721 28.6842 39.8369V36.2938C28.6842 36.2341 28.6961 36.1762 28.7199 36.1217L30.2747 32.5785C30.3409 32.4251 30.4922 32.3263 30.6587 32.3246C30.8252 32.3297 30.9781 32.4183 31.0478 32.57L33.1667 37.105C33.1939 37.1613 33.2075 37.2226 33.2075 37.2857V40.5459C33.2075 40.7811 33.0172 40.972 32.7827 40.972Z" fill="white"/>
<path d="M42.6737 38.845H32.6416C32.4071 38.845 32.2168 38.6542 32.2168 38.419C32.2168 38.1838 32.4071 37.9929 32.6416 37.9929H42.6737C42.9082 37.9929 43.0985 38.1838 43.0985 38.419C43.0985 38.6542 42.9082 38.845 42.6737 38.845Z" fill="white"/>
<path d="M28.6842 65.4893C28.4497 65.4893 28.2594 65.2984 28.2594 65.0632V40.6873C28.2594 40.4521 28.4497 40.2612 28.6842 40.2612C28.9187 40.2612 29.109 40.4521 29.109 40.6873V65.0632C29.109 65.2984 28.9187 65.4893 28.6842 65.4893Z" fill="white"/>
<path d="M38.5752 56.7022C38.3407 56.7022 38.1504 56.5113 38.1504 56.2762V43.5215C38.1504 43.2863 38.3407 43.0955 38.5752 43.0955C38.8097 43.0955 39 43.2863 39 43.5215V56.2762C39 56.5113 38.8097 56.7022 38.5752 56.7022Z" fill="white"/>
<path d="M60.9027 41.9638H45.3584V41.1117H60.0531V38.5621H60.9027V41.9638Z" fill="white"/>
<path d="M56.099 41.6792H55.2494V67.3299H56.099V41.6792Z" fill="white"/>
<path d="M52.4237 35.8695H45.3584C45.1239 35.8695 44.9336 35.6786 44.9336 35.4434C44.9336 35.2082 45.1239 35.0173 45.3584 35.0173H52.4237C52.6581 35.0173 52.8485 35.2082 52.8485 35.4434C52.8485 35.6786 52.6581 35.8695 52.4237 35.8695Z" fill="white"/>
<path d="M56.6631 39.1297H48.891C48.6565 39.1297 48.4662 38.9388 48.4662 38.7037C48.4662 38.4685 48.6565 38.2776 48.891 38.2776H56.6631C56.8976 38.2776 57.0879 38.4685 57.0879 38.7037C57.0879 38.9388 56.8976 39.1297 56.6631 39.1297Z" fill="white"/>
<path d="M49.032 67.7577C49.0201 67.7577 49.0082 67.7577 48.9963 67.7577L45.6047 67.4748C45.377 67.456 45.2054 67.2601 45.2156 67.0317L45.6353 57.072L44.9404 55.5604C44.4714 55.5535 43.4247 55.5961 42.779 56.058C41.5861 56.9135 37.1478 56.8283 35.797 55.9234C34.961 55.3644 30.8404 55.4956 28.4394 55.7103C28.3647 55.7171 28.2882 55.7035 28.2202 55.6711C25.0427 54.1612 22.0657 54.4219 19.3708 56.4432C17.325 57.9787 16.2103 60.005 16.2001 60.0255C16.088 60.2317 15.8297 60.3084 15.6241 60.1959C15.4185 60.0834 15.342 59.8261 15.4542 59.6182C15.5017 59.5296 16.6538 57.4265 18.8407 55.7785C20.8678 54.2498 24.1795 52.8557 28.4802 54.8514C29.5303 54.7611 34.9712 54.3469 36.2693 55.2144C36.7723 55.5501 37.9991 55.7802 39.3959 55.799C40.937 55.8177 41.9752 55.5876 42.2879 55.3644C43.3907 54.5736 45.1799 54.7133 45.2547 54.7202C45.4076 54.7321 45.5419 54.8275 45.6047 54.9656L46.4526 56.8079C46.4815 56.8692 46.4934 56.9374 46.4917 57.0039L46.0856 66.6567L48.806 66.8834C49.19 66.2767 50.2962 64.7974 51.7966 65.0684C53.0829 65.3036 53.7745 66.2716 54.0667 66.8135C54.653 66.6602 55.8696 66.4522 57.4549 66.7709C59.5586 67.1919 63.0011 66.154 63.5449 65.4996C63.5993 65.4348 63.6536 65.3666 63.7114 65.2968C64.2636 64.6185 64.8906 63.8515 65.6417 63.947C66.0597 64.0015 66.4029 64.3185 66.6612 64.8877C67.1047 65.8643 67.7572 66.1642 68.6595 65.8029C69.3918 65.5098 75.181 66.2818 77.6363 66.6261C77.8691 66.6585 78.0305 66.8749 77.9983 67.1067C77.966 67.3385 77.7502 67.5021 77.5191 67.4697C73.7146 66.9345 69.4734 66.4608 68.9619 66.5971C67.645 67.1271 66.5202 66.6329 65.8881 65.2388C65.7453 64.9235 65.6111 64.8008 65.5329 64.7906C65.2475 64.7599 64.6782 65.457 64.3707 65.8353C64.3129 65.9069 64.2551 65.9767 64.1991 66.0432C63.2254 67.2157 59.1898 67.9878 57.2901 67.606C55.336 67.214 54.0107 67.7202 53.9971 67.727C53.89 67.7696 53.7711 67.7662 53.6674 67.7185C53.5638 67.6708 53.4822 67.5839 53.4431 67.4765C53.4227 67.4237 52.9334 66.1421 51.6471 65.9069C50.4203 65.6819 49.4228 67.5123 49.4126 67.531C49.3379 67.6708 49.1934 67.756 49.0388 67.756L49.032 67.7577Z" fill="white"/>
<path d="M27.1311 73.0001H0.4248C0.19031 73.0001 0 72.8092 0 72.574C0 72.3388 0.19031 72.1479 0.4248 72.1479H26.2237L24.6843 70.2954C24.5789 70.1693 24.5568 69.9937 24.6248 69.8455C24.6927 69.6972 24.8406 69.6001 25.0037 69.5967L41.6779 69.3137C41.9107 69.3052 42.1061 69.4978 42.1095 69.733C42.1129 69.9682 41.926 70.1625 41.6915 70.1659L25.906 70.4334L27.4573 72.3013C27.5627 72.4291 27.5848 72.6047 27.5151 72.7546C27.4454 72.9046 27.2959 73.0001 27.1311 73.0001Z" fill="white"/>
<path d="M31.6527 23.6823H28.6859C28.4514 23.6823 28.2611 23.4915 28.2611 23.2563V18.8627C28.2611 18.6275 28.4514 18.4366 28.6859 18.4366H31.6527C31.8872 18.4366 32.0775 18.6275 32.0775 18.8627V23.2563C32.0775 23.4915 31.8872 23.6823 31.6527 23.6823ZM29.109 22.8302H31.2262V19.2888H29.109V22.8302Z" fill="white"/>
<path d="M36.8811 23.6823H33.9143C33.6798 23.6823 33.4895 23.4915 33.4895 23.2563V18.8627C33.4895 18.6275 33.6798 18.4366 33.9143 18.4366H36.8811C37.1156 18.4366 37.3059 18.6275 37.3059 18.8627V23.2563C37.3059 23.4915 37.1156 23.6823 36.8811 23.6823ZM34.3374 22.8302H36.4546V19.2888H34.3374V22.8302Z" fill="white"/>
<path d="M6.64221 31.3344C6.40772 31.3344 6.21741 31.1436 6.21741 30.9084V26.5148C6.21741 26.2796 6.40772 26.0887 6.64221 26.0887C6.8767 26.0887 7.06701 26.2796 7.06701 26.5148V30.9084C7.06701 31.1436 6.8767 31.3344 6.64221 31.3344Z" fill="white"/>
<path d="M32.0758 52.5933C31.8413 52.5933 31.651 52.4024 31.651 52.1672V48.6241C31.651 48.3889 31.8413 48.198 32.0758 48.198C32.3103 48.198 32.5006 48.3889 32.5006 48.6241V52.1672C32.5006 52.4024 32.3103 52.5933 32.0758 52.5933Z" fill="white"/>
<path d="M42.1078 50.325C41.8733 50.325 41.683 50.1341 41.683 49.8989V46.3558C41.683 46.1206 41.8733 45.9297 42.1078 45.9297C42.3423 45.9297 42.5326 46.1206 42.5326 46.3558V49.8989C42.5326 50.1341 42.3423 50.325 42.1078 50.325Z" fill="white"/>
<path d="M44.7926 50.4663C44.5581 50.4663 44.3678 50.2754 44.3678 50.0403V46.4971C44.3678 46.2619 44.5581 46.071 44.7926 46.071C45.0271 46.071 45.2174 46.2619 45.2174 46.4971V50.0403C45.2174 50.2754 45.0271 50.4663 44.7926 50.4663Z" fill="white"/>
<path d="M47.1952 50.4663C46.9607 50.4663 46.7704 50.2754 46.7704 50.0403V46.4971C46.7704 46.2619 46.9607 46.071 47.1952 46.071C47.4297 46.071 47.62 46.2619 47.62 46.4971V50.0403C47.62 50.2754 47.4297 50.4663 47.1952 50.4663Z" fill="white"/>
<path d="M49.5979 50.4663C49.3634 50.4663 49.1731 50.2754 49.1731 50.0403V46.4971C49.1731 46.2619 49.3634 46.071 49.5979 46.071C49.8324 46.071 50.0227 46.2619 50.0227 46.4971V50.0403C50.0227 50.2754 49.8324 50.4663 49.5979 50.4663Z" fill="white"/>
<path d="M51.9989 50.4663C51.7644 50.4663 51.5741 50.2754 51.5741 50.0403V46.4971C51.5741 46.2619 51.7644 46.071 51.9989 46.071C52.2334 46.071 52.4237 46.2619 52.4237 46.4971V50.0403C52.4237 50.2754 52.2334 50.4663 51.9989 50.4663Z" fill="white"/>
<path d="M49.5979 56.4091C49.3634 56.4091 49.1731 56.2182 49.1731 55.983V52.4399C49.1731 52.2047 49.3634 52.0138 49.5979 52.0138C49.8324 52.0138 50.0227 52.2047 50.0227 52.4399V55.983C50.0227 56.2182 49.8324 56.4091 49.5979 56.4091Z" fill="white"/>
<path d="M51.9989 56.4091C51.7644 56.4091 51.5741 56.2182 51.5741 55.983V52.4399C51.5741 52.2047 51.7644 52.0138 51.9989 52.0138C52.2334 52.0138 52.4237 52.2047 52.4237 52.4399V55.983C52.4237 56.2182 52.2334 56.4091 51.9989 56.4091Z" fill="white"/>
<path d="M49.5979 62.3501C49.3634 62.3501 49.1731 62.1592 49.1731 61.924V58.3809C49.1731 58.1457 49.3634 57.9548 49.5979 57.9548C49.8324 57.9548 50.0227 58.1457 50.0227 58.3809V61.924C50.0227 62.1592 49.8324 62.3501 49.5979 62.3501Z" fill="white"/>
<path d="M51.9989 62.3501C51.7644 62.3501 51.5741 62.1592 51.5741 61.924V58.3809C51.5741 58.1457 51.7644 57.9548 51.9989 57.9548C52.2334 57.9548 52.4237 58.1457 52.4237 58.3809V61.924C52.4237 62.1592 52.2334 62.3501 51.9989 62.3501Z" fill="white"/>
<path d="M34.7605 52.5933C34.526 52.5933 34.3357 52.4024 34.3357 52.1672V48.6241C34.3357 48.3889 34.526 48.198 34.7605 48.198C34.995 48.198 35.1853 48.3889 35.1853 48.6241V52.1672C35.1853 52.4024 34.995 52.5933 34.7605 52.5933Z" fill="white"/>
</g>
<defs>
<clipPath id="clip0_1_815">
<rect width="78" height="73" fill="white"/>
</clipPath>
</defs>
</svg>
