<svg width="59" height="71" viewBox="0 0 59 71" fill="none" xmlns="http://www.w3.org/2000/svg">
<g clip-path="url(#clip0_1_754)">
<path d="M58.7248 69.8332H48.3412V61.5508C48.3412 61.4155 48.4275 61.3431 48.6142 61.1845C48.8638 60.9722 49.3305 60.5756 49.5289 60.0716C49.7272 59.577 49.8462 58.4805 49.9349 57.6779C50.0235 56.88 50.0469 56.7143 50.1192 56.614C50.2732 56.404 50.5252 56.3527 50.7702 56.3014C51.2369 56.2057 51.7199 56.1077 51.8483 54.9972C52.0233 53.469 52.0559 47.774 51.7923 46.4861C51.6149 45.6136 50.5369 44.3584 49.5849 43.2525C48.5862 42.0883 47.7251 41.0851 47.6388 40.3525C47.3495 37.9004 47.3915 31.7855 47.6411 29.3287C47.7788 27.9732 48.4018 27.46 48.9035 27.0493C49.2045 26.802 49.4425 26.6061 49.5055 26.2724C49.6689 25.4162 49.6689 19.7702 49.5055 18.9046C49.3749 18.2047 48.6795 18.1977 47.6341 18.263C47.2841 18.2863 46.9551 18.3073 46.6774 18.27L46.4744 18.2443L46.4628 4.42788C46.3414 4.03126 44.3954 0.80229 44.0804 0.482659C43.6907 0.0930366 43.042 -0.196264 42.3887 0.163029C42.195 0.27035 41.7003 1.15225 41.3013 1.8615C40.7483 2.84839 40.1789 3.86561 39.7076 4.26923V9.63996H37.3742V6.0447C37.3042 5.86505 36.7278 5.1838 36.5388 5.06014C35.8855 4.63786 34.1681 4.56787 33.2347 5.07414C32.8847 5.26545 32.7074 5.50576 32.7074 5.79039V9.63996H30.1406V6.0447C30.0706 5.86505 29.4943 5.1838 29.3053 5.06014C28.4653 4.51654 26.6382 4.60286 25.9359 5.22346C25.8799 5.28179 25.5625 5.7064 25.4738 5.84639V9.63996H23.3738V4.85717C23.2921 4.48154 20.9027 0.538653 20.5644 0.242353C20.1514 -0.0539468 19.2693 -0.0702782 18.882 0.317011L16.3876 4.70085L16.3736 18.263L16.1519 18.2723C15.9186 18.284 15.6596 18.2723 15.3842 18.2583C14.1592 18.207 13.2772 18.2373 13.1092 19.1379C12.9458 20.0128 12.9762 25.4418 13.1512 26.2211C13.2632 26.7274 13.5758 26.9187 13.9702 27.159C14.4719 27.467 15.0435 27.8146 15.1906 28.8715C15.5196 31.2349 15.4472 37.7978 15.2209 40.1239C15.1136 41.2017 14.7122 41.4444 14.2852 41.6987C14.0729 41.8247 13.8512 41.9553 13.6225 42.2143C13.0392 42.8699 11.7278 44.475 11.3428 45.2216C10.5728 46.7171 10.5331 53.1027 10.7921 54.9645C10.9578 56.1544 11.4478 56.2337 11.8421 56.2967C12.0521 56.3317 12.2715 56.369 12.3881 56.5697C12.6121 56.957 12.6541 57.7035 12.6961 58.4921C12.7288 59.0521 12.7591 59.6307 12.8618 59.9643L12.9528 60.2676H12.6378C12.4231 60.2653 12.2341 60.1999 12.0521 60.1346C11.8935 60.0786 11.7418 60.0273 11.5994 60.0296C10.8458 60.0529 10.0361 60.1019 9.24972 60.1509C8.23935 60.2116 7.19399 60.2746 6.22796 60.2863C5.89896 60.2933 5.55828 60.2209 5.23394 60.1533C4.50125 60.0016 3.86656 59.8686 3.30655 60.4729V69.8239L3.08254 69.8332C2.81653 69.8425 2.50386 69.8332 2.17485 69.8215C1.36049 69.7935 0.242795 69.7562 0.0351226 70.1318C-0.0558799 70.2975 0.0327892 70.6031 0.282463 70.9997H58.7248C58.8975 70.9997 59.0001 70.7034 59.0001 70.4165C59.0001 70.1295 58.8975 69.8332 58.7248 69.8332ZM50.6746 54.9155L49.9092 55.3868L49.8252 55.3728C47.7648 55.0555 46.1641 55.0438 44.7921 55.3378L44.6754 55.3611L44.141 54.8899V47.4357H50.6746V54.9155ZM19.6427 46.6425C19.47 45.049 17.9486 43.3575 16.7259 41.9996C16.5393 41.792 16.3619 41.5937 16.1986 41.407L16.1402 41.3394V28.0409C16.0422 27.9639 15.8252 27.7889 15.9209 27.5253L15.9769 27.3713H46.7824L46.8431 27.4156C46.9155 27.467 46.9598 27.5463 46.9645 27.6326C46.9738 27.8029 46.8314 27.9312 46.7194 28.0316C46.7148 28.0362 46.7124 28.0386 46.7078 28.0409V41.3441L46.3881 41.687C45.2657 42.8839 43.385 44.8857 43.2007 46.4068C43.0257 47.83 42.9627 54.1036 43.21 55.4358C43.3593 56.2407 44.2157 56.3317 44.5774 56.3317H44.7757L45.2961 59.675L45.2774 59.7287C45.1351 60.1533 44.7851 60.2163 44.5307 60.2629C43.7934 60.3982 42.293 60.3516 40.9723 60.3119C40.4449 60.2956 39.9479 60.2793 39.5792 60.2793C36.7535 60.2793 33.8507 60.2023 31.0437 60.1276C27.0279 60.0226 22.8721 59.913 18.8167 60.0203C18.441 60.0296 18.1866 60.0903 17.8786 60.2419L17.4843 60.4379L18.056 56.3037L18.273 56.3177C19.0663 56.369 19.4957 56.0144 19.631 55.2002C19.883 53.6463 19.8247 48.3316 19.6427 46.6425ZM47.5291 42.5549L47.6225 42.5713L50.4459 46.2692H44.2717L44.3884 45.9542C44.5821 45.4316 46.7218 42.4243 47.5291 42.5549ZM42.804 1.54187L42.846 1.51388C42.9253 1.46022 43.0303 1.45555 43.1237 1.50688C43.4714 1.68886 45.3077 4.31123 45.3077 4.62386V9.63996H41.0703L41.0096 9.49764C40.7203 8.82339 40.7483 8.03947 40.7763 7.2089C40.8019 6.51831 40.8276 5.80439 40.6549 5.16747L40.6269 5.06948L42.804 1.54187ZM34.3128 6.0307C34.6721 5.78106 35.2135 5.81839 35.9648 6.14502L36.1001 6.20335L36.2168 9.63996H33.8554L33.8741 9.39032C33.8974 9.04969 33.8764 8.64841 33.8577 8.26345C33.8064 7.31156 33.7597 6.41566 34.3128 6.0307ZM27.0792 6.0307C27.4386 5.78106 27.9799 5.81839 28.7313 6.14502L28.8666 6.20335L28.9833 9.63996H26.6219L26.6405 9.39032C26.6639 9.04969 26.6429 8.64841 26.6242 8.26345C26.5729 7.31156 26.5262 6.41566 27.0792 6.0307ZM17.5403 4.62386C17.5403 4.48854 17.615 4.37422 18.273 3.50399C18.7187 2.91372 19.4677 1.92216 19.5283 1.65619L19.6823 0.984269L19.9694 1.61187C20.072 1.83817 20.6647 2.62908 21.1407 3.26368C22.1207 4.5702 22.2071 4.71018 22.2071 4.85717V9.63996H17.5403V4.62386ZM17.5426 11.0631L17.5146 10.8065H44.6404C44.6404 10.8065 44.6521 10.7925 44.6591 10.7832C44.7547 10.6758 44.8714 10.5382 45.0417 10.5475C45.1281 10.5522 45.2097 10.5965 45.2611 10.6688L45.3124 10.7412L45.3054 10.8298C45.2051 11.8027 45.2681 12.9249 45.3287 14.0098C45.3941 15.2043 45.4617 16.4385 45.3194 17.5001C45.2517 17.99 45.0371 18.249 44.8644 18.4566C44.7407 18.6036 44.6427 18.7203 44.6077 18.9023C44.5587 19.1542 44.5891 19.9685 44.6147 20.6241C44.6637 21.9096 44.6567 22.0542 44.5401 22.1709L44.4724 22.2385H41.8356L41.8076 22.0356C41.7586 21.6436 41.7843 21.1957 41.8123 20.722C41.8566 19.9731 41.9033 19.1985 41.621 18.7273C41.5183 18.5546 41.0703 18.319 40.1486 18.2257C38.8232 18.0927 37.3835 18.3167 36.9075 18.7203V22.2385H33.8951L33.8741 22.0309C33.8251 21.569 33.8577 21.0907 33.8881 20.6287C33.9814 19.2032 33.9674 18.3913 32.5814 18.256C30.8267 18.0857 29.7883 18.0787 29.3193 18.5313C28.8223 19.0119 28.8573 20.1598 28.9739 21.9912L28.9903 22.2385H26.1949L26.1739 22.0309C26.1249 21.5713 26.1575 21.0907 26.1879 20.6287C26.2812 19.2032 26.2672 18.3913 24.8835 18.256C23.1078 18.0833 21.9784 18.0857 21.4557 18.6013C20.9867 19.0632 20.8747 19.9801 21.0404 21.9866L21.0614 22.2385H18.3756L18.308 22.1709C18.1913 22.0542 18.1843 21.9096 18.2333 20.6241C18.259 19.9685 18.2893 19.1542 18.2403 18.9023C18.2053 18.7203 18.1073 18.6036 17.9836 18.4566C17.811 18.249 17.5963 17.99 17.5286 17.5001C17.3909 16.4782 17.4563 15.2907 17.5216 14.1428C17.58 13.0929 17.6383 12.0057 17.5426 11.0631ZM14.7612 26.2048L14.2735 25.7171V19.4389H17.0643L17.0736 19.6605C17.0853 19.8705 17.0783 20.1294 17.0689 20.4304C17.0363 21.541 16.9896 23.2184 17.9393 23.4027C18.616 23.5334 21.3344 23.4681 21.7521 23.2184C22.3284 22.8755 22.2654 21.8093 22.2118 20.869C22.1838 20.4117 22.1604 19.9778 22.2071 19.6372L22.2374 19.4365H25.0422L25.0072 19.7025C24.7645 21.45 24.9045 22.5068 25.4412 23.0318C26.1482 23.72 27.5809 23.5544 29.681 23.2114C30.206 22.4788 30.178 21.5829 30.1453 20.6381C30.136 20.3138 30.1266 19.9825 30.1406 19.6605L30.15 19.4365H32.7004L32.7074 19.6628C32.7144 19.8308 32.7097 20.0501 32.7027 20.3021C32.6817 21.247 32.642 23.0038 33.2744 23.3164C33.6804 23.5171 36.5248 23.5847 37.5819 23.1974C37.8082 23.1158 37.8409 23.0481 37.8432 23.0458V19.4389L40.6223 19.4365L40.6409 19.6512C40.6759 20.0571 40.6526 20.4911 40.6316 20.911C40.5569 22.3785 40.5803 23.2838 41.9336 23.4191C43.6814 23.5941 44.7967 23.5941 45.3241 23.0808C45.8608 22.5582 45.8934 21.3963 45.7744 19.6862L45.7557 19.4365H48.5745V25.7171L48.0868 26.2048H14.7612ZM12.3811 45.6462C13.1115 44.5194 13.9398 43.2432 15.2139 42.5549L15.2652 42.5269H15.3236C16.1286 42.5269 18.0723 45.2496 18.2356 45.9845L18.2963 46.2692H11.9751L12.3811 45.6462ZM12.2038 55.3658L11.9401 55.4008V47.4357H18.4736V55.3635L18.245 55.3681C17.4796 55.3798 16.7096 55.3448 15.9676 55.3121C14.7332 55.2562 13.4568 55.2002 12.2038 55.3658ZM14.5069 69.8332H4.22824V61.2008H14.5069V69.8332ZM15.2186 60.5266C15.0039 60.5266 14.8032 60.4636 14.6259 60.3353C13.6692 59.6447 13.5782 57.2533 13.5735 56.5347V56.299H16.7049L16.7749 56.369C17.0479 56.6467 16.7539 58.0045 16.6559 58.4128C16.4576 59.2504 16.1122 60.2886 15.5942 60.4636C15.4659 60.5056 15.3399 60.5266 15.2186 60.5266ZM47.1745 69.8332H15.6736V61.2008H47.1745V69.8332ZM47.9375 60.3306C47.8068 60.4052 47.6691 60.4449 47.5315 60.4449C47.3938 60.4449 47.2608 60.4076 47.1325 60.3329C46.4324 59.9316 46.0101 58.5131 46.0078 56.5347V56.299H49.0412V56.5323C49.0552 58.4968 48.6422 59.9176 47.9375 60.3306Z" fill="#FBFBFB"/>
<path d="M33.0106 41.3677C32.4996 40.8334 31.8556 40.6188 31.0459 40.7121C30.0425 40.8264 29.1558 41.6173 28.8922 42.6369C28.6472 43.5864 28.5748 47.2447 28.7848 48.1499C28.9318 48.7845 30.2245 49.2605 31.6642 49.2068C32.7003 49.1718 33.9603 48.8242 34.0956 47.9679C34.392 46.0805 34.35 42.7652 33.0106 41.3677ZM32.9406 47.9026H29.9072V42.8865C29.9072 42.5599 30.0705 42.2776 30.3669 42.0956C30.6072 41.9463 30.9316 41.8646 31.2816 41.8646C32.0866 41.8646 32.9406 42.3056 32.9406 43.1198V47.9026Z" fill="#FBFBFB"/>
<path d="M33.7806 32.0937C33.4143 30.8992 31.9559 30.7172 30.8195 30.9225C29.9492 31.0811 29.5105 31.5501 29.3052 32.537C29.2025 33.0386 29.1138 34.0045 29.1465 34.8817C29.1838 35.8966 29.3705 36.5779 29.6622 36.7505C30.0845 37.0025 32.6069 37.0725 33.1786 36.9022C33.3116 36.8602 33.4353 36.7388 33.545 36.5335C34.119 35.4603 34.0046 32.8309 33.7806 32.0937ZM32.7073 35.7706H30.3295L30.3762 35.4976C30.4112 35.2947 30.3925 34.8794 30.3715 34.4408C30.3179 33.2462 30.3109 32.4437 30.6935 32.18L30.7472 32.1427L32.7073 32.0214V35.7706Z" fill="#FBFBFB"/>
</g>
<defs>
<clipPath id="clip0_1_754">
<rect width="59" height="71" fill="white"/>
</clipPath>
</defs>
</svg>
