<svg width="58" height="71" viewBox="0 0 58 71" fill="none" xmlns="http://www.w3.org/2000/svg">
<g clip-path="url(#clip0_1_752)">
<path d="M57.8762 70.0246H52.4201L52.4226 69.7813C52.476 55.1158 52.3837 41.8974 50.6896 28.6255C50.4299 26.5923 50.0028 24.3912 49.5902 22.2607C49.0465 19.4663 48.4858 16.5745 48.2868 13.9941C48.2553 13.583 48.2723 13.1647 48.2892 12.7586C48.3038 12.3962 48.3184 12.0241 48.299 11.6714L48.2771 11.309L48.6193 11.4258C49.6848 11.7955 50.3353 11.5912 50.5707 11.3066C50.6896 11.1631 50.7066 10.9977 50.6168 10.8421C50.4348 10.5283 49.7916 10.2341 48.5781 10.4383L48.3062 10.4821L48.2941 10.2097C48.2868 10.0176 48.2965 9.8133 48.3062 9.59928C48.3523 8.73832 48.3329 8.19596 47.7383 8.0549C47.0272 8.24217 47.0175 8.70913 47.066 9.56766C47.0781 9.77682 47.0878 9.99084 47.083 10.2049L47.0757 10.4748L46.8087 10.4383C45.9034 10.3216 45.4083 10.5478 45.2433 10.7983C45.1583 10.9296 45.1583 11.0707 45.2433 11.2118C45.4034 11.4744 45.9107 11.7492 46.8136 11.6593L47.0903 11.6325L47.0806 11.9098C47.0733 12.1408 47.0806 12.3719 47.0903 12.6151C47.1 12.9069 47.1097 13.2085 47.0903 13.5076C46.85 17.3139 46.0078 22.1537 45.2651 26.4245C45.1219 27.249 44.9836 28.0467 44.8549 28.8031C44.8452 28.8663 44.8355 28.9514 44.8258 29.0511C44.77 29.5813 44.6947 30.3085 44.2069 30.3791L43.9618 30.4155L40.4886 3.34881L40.8017 3.38772C41.8381 3.51905 42.5104 3.24666 42.7167 2.91589C42.7749 2.82347 42.821 2.67755 42.7215 2.52433C42.5443 2.25437 41.9376 1.999 40.8065 2.16924L40.525 2.21059L40.5396 0.187089C40.525 0.170064 40.491 0.145743 40.4279 0.123854C40.1876 0.0411632 39.7945 0.0727804 39.5857 0.157904L39.5542 2.20816L39.2823 2.16924C38.0445 1.99413 37.3771 2.28841 37.1829 2.59243C37.1028 2.71646 37.1028 2.84293 37.1829 2.96697C37.3771 3.27098 38.0421 3.56283 39.2823 3.38772L39.4013 3.37069L39.4886 3.45582C39.8478 3.8182 39.5008 6.35244 37.9377 14.7602C37.6805 16.1465 37.4766 17.2433 37.4111 17.6908C36.4985 23.9073 35.4184 32.101 35.1878 40.3604L35.1806 40.6352L34.9112 40.5938C32.137 40.1877 31.8288 37.6948 31.5545 35.4962C31.4259 34.4528 31.3021 33.4654 30.9599 32.6701C30.7511 32.1861 30.3847 31.8383 30.023 31.7799C29.7633 31.7386 29.5158 31.8505 29.29 32.1107C28.5716 32.9303 28.2804 34.6863 28.0255 36.238C27.8241 37.4516 27.6348 38.5971 27.2561 39.2489C27.0086 39.6794 26.5207 39.8958 26.0475 40.1074C25.7465 40.2388 25.4625 40.3652 25.2756 40.5306L25.0572 40.7252L24.5961 39.9542V39.8934C24.3995 34.7933 23.9529 29.5278 23.2636 24.2478C22.9141 21.57 22.3631 18.7366 21.8316 15.9981C21.1472 12.4837 20.4409 8.84776 20.1472 5.47202C20.1157 5.11693 20.1254 4.75942 20.1351 4.41406C20.1424 4.1441 20.1496 3.89116 20.1399 3.63822L20.1278 3.34637L20.4166 3.38772C21.6544 3.56283 22.3219 3.27098 22.516 2.96697C22.5961 2.84293 22.5961 2.71646 22.516 2.59243C22.3219 2.28841 21.6544 1.99413 20.4166 2.16924L20.0841 2.21788L20.1448 1.88469C20.3414 0.797543 20.1254 0.216274 19.8778 0.0484595C19.7832 -0.0172069 19.6836 -0.0172069 19.5793 0.0460274C19.2759 0.233298 19.0332 0.877802 19.1691 1.89685L19.2128 2.22032L18.89 2.16924C17.7226 1.98197 17.0818 2.26653 16.8852 2.5681C16.7954 2.70673 16.7954 2.85266 16.8852 2.99129C17.0818 3.29044 17.725 3.57742 18.89 3.39015L19.1861 3.34151L19.1715 3.64066C18.9652 7.69009 18.2954 11.7711 17.6497 15.7184C17.3464 17.5571 17.0357 19.459 16.776 21.3317C16.3828 24.1529 16.0867 27.0495 15.8003 29.8513L15.5819 32.0037L12.3587 11.9389L12.9048 11.4598L13.0237 11.4866C13.8441 11.6641 14.3004 11.4914 14.4509 11.2677C14.5431 11.1315 14.5334 10.9637 14.429 10.808C14.2276 10.5064 13.6451 10.2292 12.6669 10.4359L12.3344 10.5064L12.3757 10.1684C12.5213 8.99125 12.281 8.26163 11.9995 8.08165C11.9218 8.03301 11.8539 8.03301 11.7786 8.08165C11.4971 8.2592 11.2592 8.98882 11.4024 10.1684L11.4437 10.5064L11.1112 10.4359C9.89279 10.1733 9.20835 10.4554 8.99234 10.774C8.89769 10.915 8.89526 11.0658 8.98263 11.1996C9.16224 11.4647 9.7326 11.6957 10.7568 11.4793L10.8612 11.4574L11.2301 11.7176L11.2568 11.7614C11.4801 12.1384 11.4558 13.0674 11.417 13.9065L11.4121 13.9892C11.1986 18.6612 10.3321 23.6349 9.49232 28.4455C8.33703 35.0754 7.14048 41.9291 7.50939 48.4787L7.52153 70.027H0.118927C0.087375 70.044 0 70.2142 0 70.5134C0 70.8125 0.087375 70.9804 0.126208 70.9998H57.8835C57.9126 70.9804 58 70.8126 58 70.511C58 70.2094 57.9126 70.044 57.8762 70.0246ZM44.6826 37.7945L47.3572 18.7123H47.5684C47.5684 18.7123 47.5708 18.7123 47.5732 18.7123C48.0805 18.7123 48.1412 19.3787 48.18 19.8214C48.1897 19.9235 48.197 20.0159 48.2091 20.084C49.811 28.3361 50.7115 37.6705 50.9615 48.6197L50.9736 49.1256L50.5731 48.8192C49.9008 48.3084 48.9858 47.8852 48.1024 47.4742C47.214 47.0632 46.2942 46.6351 45.6243 46.1195L45.5758 46.0831C45.3743 45.9298 45.1437 45.7547 45.1389 45.3461L44.6802 37.8212V37.7969L44.6826 37.7945ZM38.4159 18.6904C38.496 18.2235 38.5712 17.776 38.6295 17.3771C38.7775 16.3872 38.9425 15.3852 39.1003 14.4172C39.2581 13.4639 39.4207 12.4764 39.5663 11.4987C39.6148 11.1801 39.6877 10.8348 39.9643 10.7618C40.1391 10.718 40.3114 10.8056 40.4789 11.0245L40.5201 11.078L41.7847 23.2628L41.3866 23.0609C41.0565 22.8906 40.7871 22.8493 40.4109 22.8298C40.1876 22.8177 39.8867 22.8566 39.5954 22.8931C38.9935 22.9685 38.4256 23.039 38.1319 22.7715C38.047 22.6961 37.9499 22.5599 37.9547 22.3386C37.9717 21.3122 38.2071 19.9211 38.4159 18.6904ZM35.9063 47.0291C35.9961 42.5128 36.2533 37.7167 36.649 33.1614C36.7873 31.5659 36.9985 29.9486 37.2048 28.3823C37.3649 27.1687 37.53 25.9137 37.6586 24.6831L37.6683 24.632C37.9207 23.8683 39.7022 23.9462 41.5881 24.1456L41.9691 24.1845L41.9982 24.3694C43.7263 35.3916 44.4132 47.659 44.1681 62.9764L44.1559 63.633L35.9208 53.6906V53.6007C35.9378 52.5646 35.9233 51.5066 35.9111 50.4827C35.899 49.3494 35.8844 48.1795 35.9063 47.0291ZM32.5205 41.3356L32.5108 40.9732L34.9476 41.8877V52.64L30.8385 48.2914L30.9356 48.1333C32.0205 46.3652 32.5982 43.8869 32.5205 41.3356ZM29.739 34.4455L29.9551 33.728L30.2002 34.4358C31.3773 37.8285 32.353 42.807 30.3094 47.2651L30.2584 47.3769L30.1395 47.4013C30.0206 47.428 29.9138 47.4426 29.8216 47.4426C29.6056 47.4426 29.4624 47.3575 29.3895 47.1045C29.375 47.0608 29.3653 47.0218 29.341 46.9854C27.312 43.7799 28.4891 38.5995 29.739 34.4455ZM24.7538 42.019L27.2052 40.9465L27.1785 41.3453C27.0037 43.9574 27.4722 46.2582 28.5668 48.1844L28.5935 48.2306L28.5983 48.2817C28.6396 48.7462 25.7611 52.0903 25.7319 52.1219C25.7271 52.1292 25.7174 52.1633 25.7101 52.1852C25.6397 52.4381 25.4989 52.5573 25.2538 52.5573C25.1616 52.5573 25.0548 52.5403 24.9334 52.5062L24.7538 52.46V42.019ZM19.6424 9.90572L21.8826 22.8298L18.4021 22.9952L17.7056 22.6158L19.6424 9.90572ZM15.776 41.9315L17.5163 24.581L17.9774 24.1553L22.0476 24.0678L23.5379 39.5116V39.5383C23.2417 41.6907 23.4578 44.2031 23.6689 46.6351C23.8849 49.1329 24.1058 51.7182 23.766 53.8779C23.6374 54.6829 20.3851 58.4113 18.9919 59.9776C18.8269 60.16 18.6206 60.4032 18.3924 60.6707C17.725 61.4539 16.8949 62.4267 16.4071 62.8037C16.3585 62.8402 16.3149 62.8888 16.2687 62.9374C16.1547 63.0639 15.9945 63.239 15.7008 63.239C15.6304 63.239 15.5552 63.2293 15.4702 63.2074L15.2833 63.1588L15.776 41.9315ZM8.73507 48.3765C8.85157 39.2927 10.1355 30.1821 11.3757 21.3706L11.8393 18.063L13.0698 23.7127C13.2033 25.8481 13.5771 28.0686 13.9387 30.2185C14.2931 32.3174 14.6572 34.4893 14.7979 36.5712C14.9241 38.4487 14.8028 40.3433 14.6839 42.1771C14.6013 43.4832 14.514 44.8305 14.5188 46.1512V46.3141L8.73022 48.7462L8.73507 48.3765ZM9.4365 70.0708C9.39281 70.0708 9.34912 70.0683 9.30544 70.061C9.01419 70.0197 8.76662 69.8348 8.61129 69.543C8.40256 69.1563 8.44868 66.2524 8.48023 65.0242C8.48994 64.6521 8.55547 64.314 8.621 63.9881C8.68168 63.6817 8.73993 63.3922 8.74478 63.1004C8.77876 60.8677 8.75934 58.5913 8.73993 56.3927C8.72294 54.4567 8.70595 52.4551 8.72536 50.4876V50.3319L14.3174 47.7588V65.1336L10.2471 69.6962C10.0069 69.9394 9.72047 70.0708 9.4365 70.0708ZM24.9965 70.027V69.7838C24.982 67.95 25.1494 61.6922 27.8581 58.2241C28.7051 57.1418 29.2876 56.6991 29.8774 56.6943H29.8871C30.6322 56.6943 31.2754 57.4166 32.103 58.4405C34.0107 60.7948 34.2971 63.7789 34.5714 66.6634C34.6685 67.6873 34.7704 68.7453 34.9427 69.7424L34.9937 70.027H24.9965ZM36.1951 70.027L36.1635 69.8227C36.03 69.0031 35.9257 68.1518 35.814 67.2495C35.3577 63.5576 34.8383 59.372 32.2389 56.811C30.239 54.841 29.1056 55.1864 27.8241 56.4462C25.0645 59.1653 24.1956 64.1973 23.783 67.7457C23.7587 67.9402 23.7733 68.1518 23.7878 68.378C23.8218 68.9301 23.8631 69.5552 23.3243 69.9759L23.2587 70.027H11.5942L29.9381 49.2472L48.1024 70.027H36.1951ZM51.209 70.0708L49.4882 69.7813L45.384 65.1336V47.8025L45.4447 47.732C45.5855 47.5715 45.6898 47.4548 48.1339 48.7121C49.2479 49.2837 50.4906 49.9695 50.6921 50.1203C50.8474 50.2346 51.209 50.687 51.209 50.9351V70.0708Z" fill="white"/>
</g>
<defs>
<clipPath id="clip0_1_752">
<rect width="58" height="71" fill="white"/>
</clipPath>
</defs>
</svg>
