<svg width="55" height="71" viewBox="0 0 55 71" fill="none" xmlns="http://www.w3.org/2000/svg">
<g clip-path="url(#clip0_1_758)">
<path d="M3.61247 69.8769H0.147582C0.116286 69.8769 0.00898681 69.9859 4.51742e-05 70.175C-0.0156027 70.5175 0.310767 70.9157 1.27423 71.0025L54.696 70.8245C55.0157 70.6621 55.0045 70.4642 55 70.3974C54.9822 70.135 54.7497 69.8992 54.6737 69.8747H45.1911V34.6205L45.4996 34.7473C46.1769 35.0276 46.7939 34.8029 46.919 34.5271C47.0174 34.3113 46.7916 34.0355 46.3289 33.8064C46.1389 33.7129 45.5554 33.5661 45.086 33.4482C44.1225 33.2058 43.9907 33.1613 43.9124 33.0412L43.8901 33.0078L43.8811 32.9678C43.7626 32.4206 43.8118 31.731 43.861 31.0659C43.9303 30.0983 44.0041 29.0951 43.5436 28.6814C43.2977 28.459 42.8975 28.4011 42.3186 28.499L42.057 28.5435V18.0555L42.2694 18.0444C42.4505 18.0355 42.6628 18.0444 42.8886 18.0578C43.3849 18.0822 44.0622 18.1178 44.2567 17.8731C44.3349 17.773 44.3416 17.604 44.2701 17.3704C44.1047 16.9522 41.136 15.3485 40.0183 14.7434C39.5824 14.5076 39.2359 14.3208 39.0504 14.2118L38.914 14.1317L38.9453 13.976C39.0348 13.5423 39.2494 13.1508 39.4572 12.7704C39.6786 12.3656 39.8887 11.9852 39.9557 11.5603C40.215 9.93654 38.9498 8.09698 37.3515 7.77445L37.1749 7.73886L37.1347 4.21766L37.3917 4.25325C39.1577 4.50238 39.9066 4.14871 40.0697 3.89735C40.1234 3.81727 40.1212 3.7372 40.0675 3.64822C39.8373 3.27897 38.9006 2.96311 37.3873 3.13884L37.28 3.15218L37.204 3.07655C37.0609 2.93419 37.0698 2.68061 37.1168 1.96881C37.157 1.33931 37.2352 0.167065 36.9268 0.00913364C36.8843 -0.0131102 36.7122 -0.0553734 36.2785 0.278284L36.245 3.16553L36.0013 3.13884C34.7785 3.00982 33.7927 3.15441 33.6049 3.49251C33.4976 3.68603 33.6497 3.97965 33.824 4.21989L36.2517 4.25325L36.2204 7.75665L36.0304 7.78334C34.783 7.96129 33.8106 8.78654 33.4328 9.98993C33.0304 11.2734 33.3926 12.6392 34.3806 13.5512L34.4499 13.6157L34.4589 14.1584L29.1475 17.406L29.3018 18.0133L31.3293 18.0466V28.539L31.07 28.4968C30.4843 28.4011 30.0819 28.4612 29.836 28.6792C29.4024 29.0707 29.4627 30.0071 29.5231 30.9147C29.5723 31.6554 29.6214 32.4206 29.4314 33.0256L29.4001 33.0879C29.2459 33.3081 28.7943 33.4082 28.012 33.5706C27.5671 33.6618 27.1088 33.7552 26.8965 33.8642C26.5031 34.0644 26.3309 34.3113 26.4382 34.5293C26.5701 34.7984 27.0977 35.012 27.6565 34.7495L27.9762 34.6005V49.8553H8.97521L3.61247 56.7153V69.8747V69.8769ZM34.2577 11.0554C34.2577 9.76082 35.3173 8.70646 36.6183 8.70646C37.9193 8.70646 38.9789 9.76082 38.9789 11.0554C38.9789 12.35 37.9193 13.4044 36.6183 13.4044C35.3173 13.4044 34.2577 12.35 34.2577 11.0554ZM32.067 17.0034C33.055 16.0069 35.1697 14.5165 36.5736 14.4743C38.1585 14.4342 39.8082 15.7689 41.0131 16.7454L41.8022 17.3815H31.6937L32.0692 17.0034H32.067ZM38.0981 20.7826C37.6712 20.3911 36.9849 20.2043 36.3076 20.2999C35.7286 20.38 35.2524 20.6625 35.0043 21.0696C34.9328 21.1897 34.5148 22.2218 34.4633 22.4064V28.5012H32.4515V18.4915H40.946V28.5057L39.2046 28.4679L38.7576 28.023L38.7442 27.9563C38.619 27.3023 38.6637 26.3369 38.7106 25.3137C38.7933 23.5275 38.8872 21.5033 38.0981 20.7804V20.7826ZM37.8142 22.3864V28.5034H35.5788V22.164C35.5788 21.6835 36.1421 21.4232 36.6697 21.4232C36.9603 21.4232 37.2285 21.4989 37.4275 21.6368C37.6801 21.8103 37.812 22.0705 37.812 22.3864H37.8142ZM30.6609 29.6156H42.7165L42.7321 29.8225C42.7612 30.2118 42.7433 30.6099 42.7276 30.997C42.6964 31.7421 42.6651 32.4473 42.9378 33.0879L43.0697 33.3971H30.6609V29.6156ZM29.0961 34.5093H44.2969V69.8769H29.0961V34.5093ZM10.5422 69.8769H8.30682V63.9823C8.30682 63.2928 9.02439 62.8301 9.69501 62.8301C9.91855 62.8301 10.1153 62.8857 10.2628 62.988C10.4416 63.1148 10.5422 63.3083 10.5422 63.5374V69.8769ZM17.6955 69.8769H15.4601V63.5374C15.4601 63.4307 15.525 63.3261 15.6792 63.1793C15.7261 63.1348 16.1241 62.77 16.437 62.7478C16.7075 62.6722 17.0495 62.859 17.235 62.9813C17.4452 63.1215 17.6933 63.3306 17.6933 63.5352V69.8747L17.6955 69.8769ZM22.3899 69.8769L22.3988 63.4774C22.5352 62.9925 22.9935 62.6811 23.4875 62.7367C23.977 62.7923 24.5202 63.2194 24.5694 64.2537C24.6186 65.2435 24.5448 66.4803 24.4822 67.5702C24.4599 67.9617 24.4375 68.3399 24.4219 68.6913C24.4152 68.8404 24.4644 68.9894 24.5135 69.1451C24.5627 69.3008 24.6164 69.461 24.6253 69.6411L24.6387 69.8769H22.3921H22.3899ZM9.42453 50.9697H27.9784V56.0858H5.6288L9.42453 50.9697ZM4.73017 57.198H27.9784V69.8769H25.5195V63.315C25.5195 63.0481 25.3161 62.6966 24.9785 62.3741C24.4979 61.9159 23.8519 61.6067 23.4115 61.6311C22.4324 61.6756 21.2744 62.8301 21.2744 63.7599V69.8769H18.8155V63.7599C18.8155 62.9369 17.5368 61.6645 16.6784 61.6311C16.1688 61.6156 15.4735 61.9359 14.9505 62.4364C14.566 62.8056 14.3447 63.206 14.3447 63.5397V69.8792H11.6622V63.7621C11.6622 63.0592 10.426 61.7646 9.68831 61.6934C9.22558 61.6512 8.47448 61.9804 7.94022 62.4631C7.60714 62.7634 7.4149 63.0748 7.4149 63.3172V69.8792H4.73241V57.2002L4.73017 57.198Z" fill="white"/>
</g>
<defs>
<clipPath id="clip0_1_758">
<rect width="55" height="71" fill="white"/>
</clipPath>
</defs>
</svg>
